<?xml version="1.0" encoding="utf-8"?>
<!-- Generator: Adobe Illustrator 19.0.0, SVG Export Plug-In . SVG Version: 6.00 Build 0)  -->
<svg version="1.1" id="Layer_1" xmlns="http://www.w3.org/2000/svg" xmlns:xlink="http://www.w3.org/1999/xlink" x="0px" y="0px"
	 viewBox="0 0 1302 623.3" style="enable-background:new 0 0 1302 623.3;" xml:space="preserve">
<style type="text/css">
	.st0{fill:none;stroke:#3C2415;stroke-width:2;stroke-linecap:round;stroke-linejoin:round;stroke-miterlimit:10;}
</style>
<g>
	<g>
		<path id="XMLID_1837_" class="st0" d="M98.9,175.8c-7.2,7.4-11.7,17.2-12.6,27.2c-0.7,7.5,0.5,15.1-1.3,22.4
			c-1.8,6.9-6.2,12.9-8.8,19.6c-4.7,12.1-3.3,25.9,2.6,37.5c5.8,11.6,15.8,21.1,27.1,28c6.5,3.9,14.1,7.2,21.6,5.7
			c7.5-1.5,13.6-9.9,10.1-16.3"/>
		<path id="XMLID_1836_" class="st0" d="M138,299.2c3.7-3.8,6.7-8.4,8.6-13.4c1.4-3.6,2.2-7.5,1.2-11.2c-1.4-5-6-8.4-10.3-11.3
			c-12-8.1-24.8-16-33-27.9"/>
		<path id="XMLID_1835_" class="st0" d="M98.9,175.8c-2.7,5.7-5.5,11.7-5.1,17.8c0.2,2.6,0.9,5,1.6,7.5c2.6,8.8,5.2,17.5,7.8,26.3"
			/>
		<path id="XMLID_1834_" class="st0" d="M103,224.1c8.9-3.2,19-0.1,28.2-2.5"/>
		<path id="XMLID_1833_" class="st0" d="M144,218.5c4.6,0.1,8.9-2.1,12.9-4.2c4.1-2.2,8.2-4.4,12.3-6.5c3.9-2.1,7.5-4.6,11.3-6.7
			c4.5-2.4,9.8-3.6,13.5-7.1"/>
		<path id="XMLID_1832_" class="st0" d="M199,191.6c16.6-6.2,30.4-17.9,43.8-29.5c3.5-3,7.1-6.1,9.9-9.9"/>
		<path id="XMLID_1831_" class="st0" d="M251.1,156.4c-10.4-8.6-16-21.9-17.9-35.2c-1.9-13.3-0.5-26.9,0.9-40.3
			c1.3,14.9,8.3,29.3,19.2,39.5c1.5,1.4,3.1,2.7,4.2,4.5c2.7,4.1,2.2,9.5,1.6,14.4"/>
		<path id="XMLID_1830_" class="st0" d="M259.7,133.5c0.5-4.4,3.5-8.3,7.2-10.8c3.7-2.6,7.9-4.1,12-5.9
			c10.8-4.7,20.8-11.3,29.5-19.3c-4.3,12.5-9,25.5-18.3,35c-7.2,7.3-16.8,12-24,19.3"/>
		<path id="XMLID_1829_" class="st0" d="M267.1,149.5c-13.5,32.9-33.7,63.1-59,88.2"/>
		<path id="XMLID_1828_" class="st0" d="M198.1,246.2c-2.5,2.6-5.9,4.2-9,6.1c-3.1,1.9-6.1,4.6-6.8,8.1"/>
		<path id="XMLID_1827_" class="st0" d="M156.9,221.6c3.7-1.1,7.9-0.3,11,2.1c3.7,2.9,5.4,7.6,6.2,12.2c0.8,4.6,1,9.3,2.4,13.8
			c3.7,11.6,15,19.1,21,29.8"/>
		<path id="XMLID_1826_" class="st0" d="M156.8,221.5c3,1.9,3.9,6.4,1.8,9.3c1.5,0.7,3.3,2.3,2.3,3.7c-0.8,1.1-2.9,1.2-2.8,2.5
			c0.1,1,1.6,1.2,2.3,2c0.9,1.1-0.1,2.8,0.2,4.2c0.3,2,3,3.3,2.6,5.2c-0.4,1.8-3.3,2.5-3.2,4.4c0,0.8,0.6,1.5,0.9,2.2
			c0.8,2.4-1.9,4.5-4.2,5.7"/>
		<path id="XMLID_1825_" class="st0" d="M195.8,276.7c2,7,7.1,13,13.7,16.1c1.6,0.7,3.2,1.3,4.6,2.4c1.2,1,2.1,2.2,2.9,3.5
			c2.3,3.4,4.6,6.7,7.1,9.9c2.4,3.1,5,6,7.8,8.8c3.4,3.4,7.2,8.2,4.7,12.3c2.5,1.4,3.9,4,5.2,6.5c2.3,4.3,4.7,9.1,3.5,13.9"/>
		<path id="XMLID_1824_" class="st0" d="M223.5,308.4c2-2.5,0.7-6.1-0.6-9c-1.6-3.5-3.3-7-4.9-10.6c1.5-0.7,3.2-0.8,4.8-0.2
			c-0.7-0.7-1.4-1.4-2.1-2c2.9-2.5,7.6-1.6,10.4,0.9c2.8,2.6,4.2,6.3,5.5,9.9c1.4,3.8,2.7,7.6,4.1,11.4c2.9,7.9,5.8,16,5.8,24.4
			c0,2.8-0.3,5.5-0.6,8.2"/>
		<path id="XMLID_1823_" class="st0" d="M173,327.2c-5,0.6-10.1,1.1-15.1,1.7c-2.3,0.3-4.8,0.5-6.9-0.5c-1.3-0.7-2.4-1.8-3.4-2.9
			c-3.9-4.2-8-9.5-6.5-15"/>
		<path id="XMLID_1822_" class="st0" d="M182.5,329.7c-4.9-0.7-9.6-2.6-13.6-5.5c-4.5-3.1-8.2-7.4-13.2-9.6
			c-5.8-2.4-12.6-1.7-18.1-4.7"/>
		<path id="XMLID_1821_" class="st0" d="M138.3,297.6c5.5-0.3,11.5-0.9,15.6-4.6c3.8-3.5,5.3-9.2,9.5-12.2"/>
		<path id="XMLID_1820_" class="st0" d="M154.6,262.1c1.6,0.9,2.9,2.4,3.5,4.2c-0.8,0.3-1.4,0.9-1.7,1.6c1.1,0.8,2.3,1.7,2.9,2.9
			c0.6,1.2,0.6,2.9-0.5,3.8c1.3,0,2.1,1.3,2.4,2.6c0.3,1.2,0.4,2.6,1.3,3.5c0.7,0.6,1.6,0.9,2.5,1.3c1.7,0.9,2.9,2.8,2.9,4.7"/>
		<path id="XMLID_1819_" class="st0" d="M101.2,292.6c3.6,0.1,7.3,0.2,10.8-0.8c1.5-0.4,3-1.1,4.5-0.6c1.6,0.5,2.7,2.4,2.3,4.1
			c1.5-0.5,2.9-1.5,3.7-2.9c0.8,1.1,1.6,2.1,2.3,3.2c1-1.4,2-2.7,3.1-4.1c0.8,1.4,1.6,2.7,2.4,4.1c0.5-1.3,1.4-2.4,2.6-3
			c0.4,0.8,0.8,1.6,1.3,2.4c0.8,0.5,1-1.6,2-1.7c0.6-0.1,0.9,0.7,1.3,1.2c0.7,0.8,2,0.8,2.9,0.3c0.9-0.5,1.5-1.4,2.1-2.3"/>
		<path id="XMLID_1818_" class="st0" d="M103.4,293.1c2.9,0.5,5.5,2.6,6.5,5.4c0.7-0.4,1.4-0.8,2.2-1.2c0.2,1.6,0.4,3.3,0.6,4.9
			c0.5-0.9,2-0.8,2.7,0c0.7,0.8,0.8,1.9,0.9,3c0.8-0.4,1.6-0.9,2.3-1.3c0.3,1.2,1.4,2.2,2.6,2.5c1.2,0.2,2.6-0.3,3.3-1.3
			c-0.1,1.2,1.4,2.3,2.5,1.8c1.3-0.6,1.8-2.9,3.3-2.7c0.5,0.1,0.9,0.4,1.4,0.5c1,0.1,1.5-1,2-1.9c0.5-0.8,1.8-1.6,2.3-0.8
			c0.5-1.1,0.6-2.3,0.6-3.5c0.3-0.1,0.7-0.1,1-0.2"/>
		<path id="XMLID_1817_" class="st0" d="M99.8,273.5c0.5,2.1,1.2,4.1,2,6c0.7-0.2,0.8-1.3,0.6-2c-0.5-1.7-1.4-3.2-2.7-4.3
			c0,0.7,0.1,1.3,0.4,1.9"/>
		<path id="XMLID_1816_" class="st0" d="M176.2,272.9c0.8-0.7,0.6-2.1,0-2.9c-0.6-0.8-1.4-1.4-2.4-1.4c-0.9,0-1.9,0.6-2.1,1.6
			c-0.1,0.8,0.3,1.6,0.9,2.2c0.4,0.4,0.8,0.8,1.3,0.9c0.5,0.1,1.2-0.3,1.1-0.9"/>
		<path id="XMLID_1815_" class="st0" d="M168.4,270.8c-0.4,1.4-0.8,2.9-0.2,4.3c0.7,1.7,2.6,2.4,4.4,2.9c0.8,0.2,1.5,0.5,2.3,0.7"/>
		<path id="XMLID_1814_" class="st0" d="M177,271.3c-0.6,0.9-1.2,1.9-1.7,2.8c-0.2,0.3-0.3,0.7-0.3,1.1c0.1,0.6,0.7,1,1.3,1.2
			c0.9,0.4,2.1,0.6,2.8,0"/>
		<path id="XMLID_1813_" class="st0" d="M184.6,272c0.3,2.2-0.1,4.5-1,6.5"/>
		<path id="XMLID_1812_" class="st0" d="M173.4,307.1c-2.4,3.2-6.4,4.8-10.3,5.8c-3.3,0.8-6.7,1.2-10,0.8"/>
		<path id="XMLID_1811_" class="st0" d="M154.6,307.1c-0.1,1.6-1.2,3.1-2.5,4c-1.4,0.9-3,1.2-4.7,1.5c-1.8,0.2-3.6,0.3-5.4,0.2"/>
		<path id="XMLID_1810_" class="st0" d="M130.8,315c4.4,6.4,4.6,14.6,7.1,21.9c0.8,2.2,1.8,4.5,3.5,6.3c1.2,1.3,2.7,2.4,4.3,3.4
			c7.5,4.7,16.3,7.4,25.3,7.8c3.7,0.2,7.6-0.1,10.8-1.9"/>
		<path id="XMLID_1809_" class="st0" d="M181.9,349.6c-2.7,10.1-10.8,17.7-15.7,26.9c-5.4,9.9-7.1,21.5-11.7,31.8"/>
		<path id="XMLID_1808_" class="st0" d="M68.3,205c4.1,2.5,6.6,7,7.6,11.6c1.1,4.6,0.9,9.5,0.8,14.2c-0.1,3.7-0.2,7.4-1.3,10.9
			c-1.5,5.1-4.8,9.5-6.9,14.4c-4.9,11.6-2.2,25.2,3.7,36.3c6,11.1,14.9,20.2,23.5,29.4c5,5.4,9.9,11.1,12.6,17.9
			c1.2,3.1,2,6.5,4.2,9"/>
		<path id="XMLID_1807_" class="st0" d="M69.7,204.9c2.2,2.3,4.4,4.5,6.7,6.8c2.3,2.4,4.7,4.8,6.3,7.7c1.6,2.9,2.5,6.4,1.5,9.6"/>
		<path id="XMLID_1806_" class="st0" d="M125.6,316.6c-0.8,14-2,27.9-3.6,41.9"/>
		<path id="XMLID_1805_" class="st0" d="M146.8,347.3c1.7,17.3,4.5,39.9,9.3,56.7"/>
		<path id="XMLID_1804_" class="st0" d="M115.1,353.2c0.7,2.4,1.4,4.8,2.2,7.2c2-1.7,3.4-4,4-6.6c1.3,4.5,0.9,9.5-1.1,13.7
			c-0.8,1.6-1.8,3.3-1.4,5c0.5,1.9,2.5,2.8,4.2,3.7c10,4.9,18.3,13.3,23.2,23.3c1,2,1.8,4.1,3.4,5.7c2.3,2.4,5.8,3.3,8.2,5.6"/>
		<path id="XMLID_1803_" class="st0" d="M114.8,352.1c-0.1,2.7-1.1,5.3-2.6,7.5c-2-2-4-4-6-6c0.2,2.3,0.4,4.6,0.6,6.9
			c-2.8-1.5-5.8-2.5-8.9-3c2.2,3.1,4.4,6.3,5.1,10c0.3,1.7,0.3,3.4,0.5,5.1c0.9,9.4,6.7,17.9,14.2,23.6c1.7,1.3,3.5,2.5,4.4,4.3
			c0.7,1.4,0.8,2.9,1.1,4.4c1.2,5.7,5,10.6,6.6,16.3c0.8,2.8,1,5.6,1.2,8.5c0.3,5,0.3,10.1,0.2,15.1"/>
		<path id="XMLID_1802_" class="st0" d="M124.1,407.3c3,3.9,1.7,9.4,0,14c-3.5,9.5-8.2,18.9-15.9,25.6c-5.9,5.1-13.2,8.4-19.9,12.4
			c-6.7,4-13.2,9.3-15.9,16.7c-1,2.7-1.4,5.7-0.7,8.4c1.1,4.1,3.3,7.6,6.5,10.4c3.8,3.4,8.4,7,14.4,10.1c4.1,2.2,9.2,7.2,10.1,11.7
			c1.4,7.1-1.3,28.1,0,32.6"/>
		<path id="XMLID_1801_" class="st0" d="M123.8,403.2c-5.5,9.3-12.3,17.8-20.2,25.1c-9.6,8.9-20.7,16.1-31.6,23.3
			c-2.7,1.8-5.3,3.5-7.8,5.6c-4.1,3.4-7.8,7.6-9.6,12.7c-1.2,3.2-1.5,6.7-1.4,10.2c0.2,5.7,1.6,11.4,4.2,16.6c2,4.1,8,11,10.4,14.8
			c5.7,9,12.3,25.3-3.1,49.4"/>
		<path id="XMLID_1800_" class="st0" d="M139.6,436.3c-12.1,9.8-22.8,21.3-31.7,34.2c-2.1,3-4,6-6,9c-1,1.5-2,3.1-2.4,4.9
			c-0.2,0.8-0.2,1.6,0.2,2.3c0.6,1.1,2,1.5,2.8,2.5c0.9,1.2,0.7,2.9,1.7,3.9c0.9,1,2.5,1,3.7,1.6c2.6,1.4,2.6,5.3,5,7.1
			c0.8,0.6,1.8,0.9,2.4,1.6c0.6,0.7,0.7,1.7,1,2.6c0.9,3.1,3.6,5.6,6.8,6.2c3.2,0.6,6.6-0.7,8.6-3.3c0.8-1,1.4-2.3,2.7-2.7
			c1.2-0.3,2.4,0.3,3.6,0.1c2.9-0.4,3.6-5.1,6.4-5.5c1.7-0.3,3.5,1.2,5.1,0.6c1.2-0.4,1.6-1.7,2.6-2.3c1.5-1,2.9-0.8,4.6-0.8
			c4.2,0,5.8-1.3,8.9-3.7c2.2-1.7,5-1.2,7.1-3.1c2.4-2.1,2.9-4.9,6-6.3c2.2-1,5.3-1.3,6.4-3.7c0.6-1.4,0.6-3.3,1.9-3.9
			c0.6-0.3,1.4-0.2,2.1-0.2c3.5-0.1,6.4-3.9,5.5-7.3c2.9,0.6,6.2-1,7.5-3.7c0.8-1.7,1.1-3.8,2.8-4.7c1.6-0.9,3.8-0.1,5.3-1.2
			c2.8-2.1-0.6-8.3,2.7-9.5c0.7-0.3,1.6-0.1,2.4-0.2c2.2-0.4,3.3-2.7,4.2-4.8c1.5-3.2,3.5-6.3,6-8.9c3.8-0.1,6.6-4.9,4.8-8.2
			c5-0.7,8.6-6.6,6.8-11.4c4.2-2.4,6.3-8,4.5-12.5"/>
		<path id="XMLID_1799_" class="st0" d="M244.2,347.8c2.7,3.5,2.7,8.8,0,12.4c-0.4,0.5-0.9,1.2-0.6,1.7c0.2,0.3,0.6,0.5,0.9,0.7
			c2.6,1.3,2.8,5,1.6,7.7c-0.5,1.2-1.2,2.5-0.5,3.6c0.3,0.5,0.8,0.8,1.2,1.3c1.3,1.8-1.1,4.1-1.2,6.4c-0.1,1.8,1.5,3.6,1,5.3
			c-0.4,1.3-1.8,2.1-2.2,3.4c-0.4,1.3,0.3,2.7,0.6,4c0.5,2.2-0.1,4.6-1.6,6.3c-0.7,0.7-1.5,1.4-1.9,2.2c-1,2,1.6,3.7,0.8,6.7"/>
		<path id="XMLID_1798_" class="st0" d="M207,342.1c2.1,3.9,1.3,9.2-1.9,12.2c-0.5,0.4-1,1-0.8,1.6c0.1,0.4,0.5,0.6,0.8,0.8
			c2.3,1.7,2,5.4,0.4,7.8c-0.7,1.1-1.6,2.3-1.1,3.5c0.2,0.5,0.7,0.9,1,1.4c1,2-1.7,3.9-2.2,6.1c-0.3,1.8,1,3.8,0.2,5.4
			c-0.6,1.2-2.1,1.8-2.7,3c-0.6,1.2-0.1,2.7,0,4c0.2,2.3-0.8,4.6-2.6,6c-0.8,0.6-1.7,1.1-2.2,1.9"/>
		<path id="XMLID_1797_" class="st0" d="M196.6,396.1c0.6,4.4-2,9-6,10.8c-0.6,0.3-1.3,0.6-1.3,1.3c0,0.4,0.3,0.7,0.5,1
			c1.6,2.4,0,5.8-2.3,7.5c-1,0.8-2.3,1.6-2.2,2.9c0,0.6,0.4,1.1,0.4,1.7c0.3,2.2-3,3.1-4.1,5c-0.9,1.6-0.4,3.9-1.7,5.2
			c-1,1-2.6,1-3.6,1.9c-1,0.9-1,2.5-1.4,3.8c-0.6,2.2-2.3,4-4.5,4.8c-0.9,0.3-2,0.5-2.8,1c-1.9,1.3-2.1,4.5-4.2,5.1"/>
		<path id="XMLID_1796_" class="st0" d="M164.8,445.9c-0.5,4.4-4.2,8.2-8.6,8.9c-0.6,0.1-1.4,0.2-1.6,0.9c-0.1,0.4,0.1,0.8,0.2,1.1
			c0.9,2.7-1.5,5.6-4.2,6.6c-1.2,0.5-2.6,1-2.9,2.2c-0.1,0.6,0.1,1.2,0,1.7c-0.3,2.2-3.7,2.2-5.3,3.7c-1.3,1.3-1.4,3.6-3,4.5
			c-1.2,0.7-2.7,0.3-3.9,0.9c-1.2,0.6-1.6,2.1-2.3,3.3c-1.2,1.9-3.3,3.3-5.6,3.4c-1,0.1-2-0.1-2.9,0.3c-2.1,0.8-3.1,3.8-5.4,3.9"/>
		<path id="XMLID_1795_" class="st0" d="M185,448c-0.5,4.4-4.2,8.2-8.6,8.9c-0.6,0.1-1.4,0.2-1.6,0.9c-0.1,0.4,0.1,0.8,0.2,1.1
			c0.9,2.7-1.5,5.6-4.2,6.6c-1.2,0.5-2.6,1-2.9,2.2c-0.1,0.6,0.1,1.2,0,1.7c-0.3,2.2-3.7,2.2-5.3,3.7c-1.3,1.3-1.4,3.6-3,4.5
			c-1.2,0.7-2.7,0.3-3.9,0.9c-1.2,0.6-1.6,2.1-2.3,3.3c-1.2,1.9-3.3,3.3-5.6,3.4c-1,0.1-2-0.1-2.9,0.3c-2.1,0.8-3.1,3.8-5.4,3.9"/>
		<path id="XMLID_1794_" class="st0" d="M206,451.9c-0.8,4.4-4.7,7.9-9.2,8.3c-0.6,0.1-1.4,0.2-1.7,0.8c-0.1,0.4,0,0.8,0.1,1.2
			c0.7,2.8-1.9,5.4-4.6,6.4c-1.2,0.4-2.7,0.8-3,2c-0.2,0.6,0,1.2-0.1,1.7c-0.5,2.2-3.8,1.9-5.5,3.4c-1.4,1.2-1.6,3.5-3.3,4.3
			c-1.2,0.6-2.7,0.1-4,0.7c-1.2,0.6-1.8,2-2.5,3.1c-1.3,1.9-3.5,3.1-5.8,3.1c-1,0-2-0.2-2.9,0.1c-2.2,0.6-3.4,3.6-5.6,3.5"/>
		<path id="XMLID_1793_" class="st0" d="M222.9,328.1c2.2,4.7,1.6,11.4-1.5,15.5c-0.5,0.6-1,1.4-0.8,2.1c0.1,0.5,0.5,0.7,0.9,0.9
			c2.4,1.9,2.1,6.6,0.7,9.8c-0.6,1.4-1.5,3-1,4.4c0.2,0.6,0.7,1.1,1,1.7c1.1,2.4-1.6,5.1-2,7.9c-0.3,2.3,1.1,4.6,0.4,6.8
			c-0.5,1.6-2,2.5-2.6,4c-0.6,1.6,0,3.4,0.1,5.1c0.3,2.8-0.7,5.8-2.4,7.8c-0.7,0.9-1.6,1.6-2.2,2.6"/>
		<path id="XMLID_1792_" class="st0" d="M214.3,396.8c0.9,4.3-1.4,9.1-5.4,11.1c-0.6,0.3-1.3,0.7-1.3,1.3c0,0.4,0.3,0.7,0.6,1
			c1.7,2.3,0.3,5.7-1.9,7.6c-1,0.8-2.2,1.7-2,3c0.1,0.6,0.4,1.1,0.5,1.7c0.4,2.2-2.8,3.2-3.9,5.2c-0.9,1.6-0.2,3.9-1.4,5.3
			c-0.9,1-2.5,1.1-3.5,2.1c-0.9,1-0.9,2.5-1.2,3.9c-0.5,2.2-2.1,4.1-4.2,5c-0.9,0.4-1.9,0.6-2.7,1.2c-1.8,1.4-1.8,4.6-3.9,5.4"/>
		<path id="XMLID_1791_" class="st0" d="M232.4,336c2.6,4.1,2.6,10.1-0.1,14.1c-0.4,0.6-0.9,1.3-0.6,2c0.2,0.4,0.6,0.6,0.9,0.8
			c2.5,1.5,2.7,5.8,1.5,8.8c-0.5,1.3-1.2,2.8-0.6,4.1c0.3,0.6,0.8,0.9,1.2,1.5c1.3,2.1-1.2,4.7-1.3,7.3c-0.1,2.1,1.5,4.1,1,6.1
			c-0.4,1.5-1.8,2.4-2.2,3.8c-0.4,1.5,0.3,3,0.6,4.6c0.5,2.5-0.1,5.3-1.7,7.2c-0.7,0.8-1.5,1.5-1.9,2.5"/>
		<path id="XMLID_1790_" class="st0" d="M230.7,396.2c1.3,4.3-0.6,9.2-4.4,11.6c-0.6,0.3-1.2,0.8-1.1,1.4c0.1,0.4,0.4,0.7,0.6,1
			c1.9,2.2,0.8,5.7-1.2,7.8c-0.9,0.9-2,1.9-1.8,3.1c0.1,0.6,0.5,1,0.7,1.6c0.6,2.2-2.5,3.5-3.4,5.5c-0.7,1.7,0.2,3.9-1,5.4
			c-0.8,1.1-2.4,1.3-3.3,2.4c-0.9,1.1-0.7,2.6-0.9,4c-0.3,2.2-1.7,4.3-3.8,5.3c-0.9,0.5-1.9,0.7-2.6,1.4c-1.6,1.5-1.4,4.7-3.4,5.7"
			/>
		<path id="XMLID_1789_" class="st0" d="M119.2,143.5c1.1,4.7,3.6,9,7,12.3c4.1,3.9,9.3,6.2,14.1,9.2c4.8,3,9.4,7.2,10.7,12.8
			c0.6,2.6,0.4,5.4,0.2,8.1c-1.4,13.4-5.6,26.5-5.2,40c0.5,14.2,6.1,27.7,12.4,40.3"/>
		<path id="XMLID_1788_" class="st0" d="M123.3,153c4.9,9.7,13.7,17.5,16.2,28.1c0.8,3.4,0.9,6.9,0.7,10.4c-0.3,5.1-1.4,10.2-3.1,15
			c-2.1,5.6-5.1,10.9-7.2,16.5c-4.1,11.2-4.2,23.8-0.3,35"/>
		<path id="XMLID_1787_" class="st0" d="M181.9,144.3c-8.2,10-13.1,22.2-17.6,34.3c-4,10.6-7.9,22-5.6,33"/>
		<path id="XMLID_1786_" class="st0" d="M181.6,145c-4,10.1-9.5,19.7-12.1,30.2c-2.6,10.3-2.3,21.3,0.8,31.4"/>
		<path id="XMLID_1785_" class="st0" d="M169.8,106.7c0.8,4.5,1.8,9,2.9,13.5c1.3,5.2,2.8,10.4,5.6,15c6.9,11.3,20.5,16.4,30,25.7
			c1.2,1.1,2.3,2.3,3,3.8c0.9,1.7,1.1,3.7,1.4,5.6c0.6,4.8,1.1,10.3-1.8,14.2"/>
		<path id="XMLID_1784_" class="st0" d="M170.4,107c-0.3,2.1,0.9,4.2,2,6c6.4,10.2,13.1,20.7,23,27.4c2.1,1.5,4.4,2.7,6.5,4.2
			c2,1.5,3.9,3.1,5.9,4.7c2.1,1.7,4.4,3.2,6.5,4.9c6.2,5,11.2,11.6,14.4,19"/>
		<path id="XMLID_1783_" class="st0" d="M196.8,170.6c1.8,6.9,3.6,13.9,3.6,21.1c0,3.2-0.4,6.3-0.7,9.5c-0.7,6.3-1.2,12.6-0.5,18.9
			c0.7,6.3,2.7,12.5,6.6,17.5c5.7,7.2,13.3,11.5,17.4,20c4.1,8.7,4.9,18.5,5.7,28"/>
		<path id="XMLID_1782_" class="st0" d="M196.1,171.4c0.7,11.4-1.2,22.8-3.4,34c-0.8,4.4-1.7,8.8-1.7,13.2c0.1,6.6,2.3,13,4.5,19.2
			c0.8,2.3,1.6,4.7,2.9,6.8c1.4,2.3,3.2,4.3,4.8,6.5c8.7,11.3,11.6,26.8,7.7,40.5"/>
		<path id="XMLID_1781_" class="st0" d="M217.3,228.7c-0.6,2.7-1.5,5.3-2.7,7.7c-1.1,2.3-2.5,4.7-2.3,7.3"/>
		<path id="XMLID_1780_" class="st0" d="M237.5,204.4c-1,15.1-4.1,30-4.9,45.1c-0.5,10.1,0.1,20.2,0.6,30.3c0.2,3.9,0.5,7.9,2,11.5"
			/>
		<path id="XMLID_1779_" class="st0" d="M130,509.9c-3.9,8.1-10,15-15.4,22.3c-5.4,7.3-10.2,15.4-11,24.4"/>
		<path id="XMLID_1778_" class="st0" d="M189.5,478c3.3,6.7,6.7,13.7,6.2,21.2c-0.4,6.3-3.7,12.1-4.1,18.4
			c-0.9,12.7,9.7,24.2,8.9,36.9"/>
		<path id="XMLID_1777_" class="st0" d="M251.8,211.5c-1.2,8-2.5,16-3.7,24c-0.7,4.2-1.3,8.5-0.3,12.6c1.6,6.8,7.3,11.9,9.5,18.5
			c4,12-4.3,24.3-6.7,36.8c-1.4,7.3-0.6,14.9-0.7,22.3c-0.1,7.5-1.3,15.3-5.9,21.2"/>
		<path id="XMLID_1776_" class="st0" d="M252.9,211.2c-0.3,8.1-0.6,16.1-1,24.2c-0.2,4.2-0.3,8.6,1.1,12.6c2.4,6.5,8.6,11,11.5,17.3
			c5.4,11.5-1.5,24.6-2.4,37.3c-1.4,19.8-0.1,41.1,4.6,60.5c2.9,12,7.1,23.6,9.9,35.6c2.8,12,4.1,24.6,1.2,36.6
			c-2.4,9.7-7.4,18.4-11.8,27.4c-6.3,13-11.3,26.7-14.8,40.7c-1.8,7.2-3.2,14.6-2.6,21.9c0.8,10,5.2,19.8,3.7,29.7"/>
		<path id="XMLID_1775_" class="st0" d="M245.6,357.5c3.5,12.3,7,29.7,9.2,42.3c1,5.6,3.5,16.6,3.5,16.6c-0.3,5.7-0.3,11.6-1.9,17.1
			c-2.8,9.8-6.9,20.9-13.3,28.8c-11.5,14.3-20.6,25.8-27.7,38.9c-8.7,16.2-8.8,33.8-9.5,52.1"/>
		<path id="XMLID_1774_" class="st0" d="M298.2,445.9c1.3,8.3-1.6,17.1-7.6,23c-4.1,4-9.3,6.6-13.7,10.3c-4.3,3.7-7.9,9.3-6.7,14.8
			c1.2,5.7,7.2,10,7.1,15.8c0,3.6-2.4,6.8-4.2,9.9c-6.7,11.8-6.2,26.3-5.4,39.8"/>
		<path id="XMLID_1773_" class="st0" d="M297.9,451c2.2,7,1.2,15-2.7,21.2c-3.2,5.1-8.3,9.2-10.1,15c-3.6,12.2,9.6,24,7.9,36.7
			c-0.5,3.7-2.2,7.2-3.4,10.7c-2.8,8.5-2.3,18,1.5,26.1"/>
		<path id="XMLID_1772_" class="st0" d="M32.9,473.8c5.8,5.2,11.9,10.8,13.9,18.3c1.2,4.4,0.8,9.1,0.3,13.7
			c-0.6,5.1-1.2,10.3-2,15.4c-0.7,4.4-1.5,8.8-1.3,13.3c0.6,10.7,7,20.9,5.2,31.5"/>
		<path id="XMLID_1771_" class="st0" d="M33.6,474.8c11.6,6.9,19.3,20,19.8,33.5c0.3,8.3-1.9,17,1.6,24.5c1.1,2.4,2.8,4.6,4.3,6.8
			c3.5,5.3,5.8,11.4,6.9,17.7"/>
		<path id="XMLID_1770_" class="st0" d="M67.4,284.3C40.7,287.8,15.9,303,1,324.9c14.5-6.3,29.7-11,45.3-13.8
			c3.2-0.6,6.5-1.1,9.5-2.3c7.4-3,12.4-9.7,16-16.7"/>
		<path id="XMLID_1769_" class="st0" d="M240.5,199.8c7.1,2.2,14.9,2.2,22.1-0.1c-2.5-0.1-5.3-0.3-7-2.2c-1.4-1.5-1.7-3.9-1.2-5.9
			c0.5-2,1.6-3.8,2.7-5.6c-3.4,2.9-6.9,5.9-11.2,7.1"/>
		<path id="XMLID_1768_" class="st0" d="M227.3,173.5c-0.8-4-0.2-8.4,1.8-12c0.7,3.4,1.8,6.8,3.3,9.9"/>
		<path id="XMLID_1767_" class="st0" d="M195.6,354.4c2.3,3,6,3.5,8.6,1.1"/>
		<path id="XMLID_1766_" class="st0" d="M204.8,355.1c4,1.6,8.4,1.9,12.6,0.9c0.8-0.2,1.6-0.4,2.4-0.3c0.7,0.1,1.3,0.3,2,0.6
			c2.7,0.9,5.8,0.5,8.2-1c0.4-0.2,0.8-0.5,1.3-0.5c0.4,0,0.8,0.2,1.2,0.5c3.1,1.7,7,1.8,10.1,0.1"/>
		<path id="XMLID_1765_" class="st0" d="M191.9,364c0.3,2.4,3.1,3.5,5.5,3.5c2.4,0,4.8-0.7,7.1,0.1"/>
		<path id="XMLID_1764_" class="st0" d="M204.8,367.4c3.8,1.9,8.3,1.8,12.5,1.7c1,0,2.2-0.2,2.7-1.1"/>
		<path id="XMLID_1763_" class="st0" d="M219.9,367.3c0.2,0.9,1.3,1.3,2.2,1.4c4,0.6,8.1-0.1,11.7-2.1"/>
		<path id="XMLID_1762_" class="st0" d="M234.8,366.6c2.9-0.3,5.7-1.8,7.5-4.1"/>
		<path id="XMLID_1761_" class="st0" d="M244.5,372.7c0.3,1.1-1.2,1.8-2.3,1.9c-2.3,0.3-4.7,0.4-7,0.2"/>
		<path id="XMLID_1760_" class="st0" d="M233.1,375.6c-3.7,1.7-7.9,2.3-11.9,1.7"/>
		<path id="XMLID_1759_" class="st0" d="M214.9,380.8c-3.8,2-8.9,1.2-12-1.8"/>
		<path id="XMLID_1758_" class="st0" d="M231.2,385.4c-2.1,1.7-5,2.3-7.6,1.7"/>
		<path id="XMLID_1757_" class="st0" d="M244.3,380.5c0.9,0.9-0.2,2.3-1.3,2.9c-2.3,1.2-4.9,1.8-7.4,1.7"/>
		<path id="XMLID_1756_" class="st0" d="M196.6,396.1c0.4,1,1.6,1.2,2.7,1.3c2.5,0.2,5,0.2,7.4,0.2c2.7,0,5.7-0.4,7.3-2.5"/>
		<path id="XMLID_1755_" class="st0" d="M214.6,394.7c0.4,0.8,1.3,1.1,2.2,1.2c1.7,0.3,3.4,0.7,5.1,1c1.5,0.3,3.1,0.6,4.7,0.4
			c1.6-0.2,3.1-1,3.9-2.4"/>
		<path id="XMLID_1754_" class="st0" d="M231.1,396.2c4,2.2,8.2-0.8,10.7-4.5"/>
		<path id="XMLID_1753_" class="st0" d="M190,408.8c2.6,0.9,5.3,1.8,8.1,2c2.8,0.2,5.7-0.3,7.9-2.1"/>
		<path id="XMLID_1752_" class="st0" d="M208.4,409.4c4.5,1.9,9.9,1.5,14.1-1.1"/>
		<path id="XMLID_1751_" class="st0" d="M225.5,407.9c5,1.9,13-0.1,15.8-4.6"/>
		<path id="XMLID_1750_" class="st0" d="M228,417.4c3.2,0.9,6.8,0.5,9.7-1"/>
		<path id="XMLID_1749_" class="st0" d="M223.6,427.2c2,1.4,4.5,1.9,6.9,1.3"/>
		<path id="XMLID_1748_" class="st0" d="M204.1,422.9c2.5,1.3,5.5,1.3,8.2,0.7c2.7-0.7,5.2-2,7.7-3.4"/>
		<path id="XMLID_1747_" class="st0" d="M189.7,420.5c4.9,1.4,10.3,0.9,14.8-1.3"/>
		<path id="XMLID_1746_" class="st0" d="M182.9,432.8c5.4,2.6,12.1,2.2,17.3-0.8"/>
		<path id="XMLID_1745_" class="st0" d="M215,436c-4.2,0.5-8.5-0.4-12.2-2.6"/>
		<path id="XMLID_1744_" class="st0" d="M176,440c1.5,0.5,2.6,1.6,3.8,2.5c2.2,1.5,5,2.1,7.7,1.6"/>
		<path id="XMLID_1743_" class="st0" d="M196.7,445.3c4,1.5,8.6,1.6,12.7,0.3"/>
		<path id="XMLID_1742_" class="st0" d="M208.1,449.9c1.1,0.6,2.4,0.8,3.6,0.7"/>
		<path id="XMLID_1741_" class="st0" d="M217.9,436.9c2.6,0.8,5.4,0.8,8,0.1"/>
		<path id="XMLID_1740_" class="st0" d="M165.6,452.2c1.5,3.2,5.5,5,8.9,4.1"/>
		<path id="XMLID_1739_" class="st0" d="M185.7,457.2c3.5,2.7,8.3,3.8,12.7,2.9"/>
		<path id="XMLID_1738_" class="st0" d="M199.1,459.7c2.3,1.6,5.2,2.2,7.9,1.8"/>
		<path id="XMLID_1737_" class="st0" d="M167.7,467.2c4.9,1.8,10.3,2.4,15.5,1.7"/>
		<path id="XMLID_1736_" class="st0" d="M185.7,469.3c2.6-0.3,5.3-0.4,8-0.2"/>
		<path id="XMLID_1735_" class="st0" d="M156.1,462.2c2.7,2.5,6.4,3.9,10.1,3.6"/>
		<path id="XMLID_1734_" class="st0" d="M148.9,468c2.8,2.7,6.9,4.1,10.8,3.6"/>
		<path id="XMLID_1733_" class="st0" d="M158.4,477.7c2.2,2.2,4.9,3.9,7.9,4.8"/>
		<path id="XMLID_1732_" class="st0" d="M142.7,474.9c2.5,2.9,6.4,4.5,10.2,4.2"/>
		<path id="XMLID_1731_" class="st0" d="M133.9,481.1c2.1,2.1,5.3,2.6,8.2,2.9c2.9,0.4,5.7,0.8,8.6,1.1"/>
		<path id="XMLID_1730_" class="st0" d="M150.4,485.7c-0.4,0.7,0.6,1.4,1.4,1.7c2.6,0.8,5.3,1.2,7.9,1.2"/>
		<path id="XMLID_1729_" class="st0" d="M165.3,487.2c2.2,2.6,6.3,2.1,9.6,1.5"/>
		<path id="XMLID_1728_" class="st0" d="M175.4,479.9c-0.2,2.2,1.6,4.4,3.8,4.7"/>
		<path id="XMLID_1727_" class="st0" d="M183.4,475.5c0.7,1.2,2.1,1.9,3.5,1.9"/>
		<path id="XMLID_1726_" class="st0" d="M163.7,473.4c5,1.8,10.2,2.7,15.5,2.6"/>
		<path id="XMLID_1725_" class="st0" d="M123.3,486.8c0.2,1.7,1.5,3,3,3.8c1.5,0.8,3.2,1,4.9,1.2c2.3,0.2,4.7,0.3,7-0.5"/>
		<path id="XMLID_1724_" class="st0" d="M138.7,489.7c0.2,2,1.5,3.9,3.3,4.9c1.8,1,4.1,1.1,5.9,0.2"/>
		<path id="XMLID_1723_" class="st0" d="M157.9,491.7c-2.6,2.2-5.7,3.8-8.9,4.8"/>
		<path id="XMLID_1722_" class="st0" d="M160.7,491.3c2.5,1.1,5.3,1.8,8,1.8"/>
		<path id="XMLID_1721_" class="st0" d="M150,496.8c0.8,0.7,1.8,1.1,2.9,1.1"/>
		<path id="XMLID_1720_" class="st0" d="M136.3,494c-0.8,2.4-3.3,3.6-5.7,4.5c-4.1,1.6-8.4,2.7-12.7,3.3"/>
		<path id="XMLID_1719_" class="st0" d="M125.3,499.3c-1.6-0.8-3.3-1.7-4.9-2.5c-1.4-0.7-2.9-1.7-2.9-3.2"/>
		<path id="XMLID_1718_" class="st0" d="M128.6,499c0.1,3.6,3.7,6.8,7.3,6.4"/>
		<path id="XMLID_1717_" class="st0" d="M135.2,496.1c-0.1,2.1,2.2,3.5,4.3,3.8c2.1,0.3,4.4,0.1,6.2,1.3"/>
		<path id="XMLID_1716_" class="st0" d="M109.6,495.7c1.9-0.4,3.7-1.5,4.7-3.2"/>
		<path id="XMLID_1715_" class="st0" d="M190.7,383.7c-2.5,4.6-5.5,8.8-9,12.7c-2.2,2.5-4.7,4.9-6.2,8c-0.8,1.7-1.3,3.6-1.9,5.3
			c-1.2,3.3-3.1,6.3-5,9.3c-5.2,8.3-10.5,16.8-17.4,23.8c-5,5.1-10.7,9.5-15.7,14.4c-4,4-7.7,8.3-12.1,11.8
			c-6.4,5.1-14.2,8.3-19.8,14.2"/>
		<path id="XMLID_1714_" class="st0" d="M111.9,475.9c0.3,4.1,3.7,7.8,7.8,8.5"/>
		<path id="XMLID_1713_" class="st0" d="M124.4,469c-1.3,1-0.4,3.1,0.7,4.2c1.9,1.8,4.3,3,6.9,3.4"/>
		<path id="XMLID_1712_" class="st0" d="M132.9,460.4c1.2,2.6,2.8,5.1,4.7,7.2"/>
		<path id="XMLID_1711_" class="st0" d="M143.4,449.5c2.5,3,5.9,5.2,9.7,6.2"/>
		<path id="XMLID_1710_" class="st0" d="M157.2,437.7c1.8,2.7,5.1,4.2,8.3,4"/>
		<path id="XMLID_1709_" class="st0" d="M167.9,418.4c1.4,0.5,2.9,1,4.3,1.5"/>
		<path id="XMLID_1708_" class="st0" d="M169.9,399.7c2.6,0.8,5.2,1.2,7.9,1.2"/>
		<path id="XMLID_1707_" class="st0" d="M177.2,387.1c3.9,0.6,8,0.6,11.9,0"/>
		<path id="XMLID_1706_" class="st0" d="M117.5,466.2c2.6,0.5,5.3,1.1,7.9,1.6"/>
		<path id="XMLID_1705_" class="st0" d="M147.8,434.8c0.9,2.9,3.5,5.2,6.5,5.7"/>
		<path id="XMLID_1704_" class="st0" d="M126.5,457.5c1.7,1.5,3.9,2.4,6.2,2.5"/>
		<path id="XMLID_1703_" class="st0" d="M110.2,343.4c-0.4,0.3-0.3,1-0.1,1.5c1.2,3.7,2.3,7.4,3.5,11.2"/>
		<path id="XMLID_1702_" class="st0" d="M48.7,564.7c8.7,6.1,18.6,9.4,28.4,12c29.7,7.8,60.3,9.1,90.7,10c21.1,0.6,42.4,1,63.4-2.3
			c21-3.3,41.8-10.3,60-23.7"/>
		<path id="XMLID_1701_" class="st0" d="M36.4,575.7c9.6,4.9,20.3,7.6,31.1,9.7c32.6,6.3,66.1,7.3,99.4,8
			c23.2,0.5,46.4,0.8,69.4-1.8c23-2.6,45.8-8.3,65.7-19.1"/>
		<path id="XMLID_1700_" class="st0" d="M7,596.8c11.7,4.3,24.8,6.6,38,8.3c39.7,5.1,80.5,5.4,121,5.4c28.2,0,56.5-0.2,84.4-3
			c27.9-2.9,55.6-8.6,79.6-18.9"/>
		<path id="XMLID_1699_" class="st0" d="M7.2,607.2c11.8,4.7,25.1,7.2,38.3,9c40.1,5.6,81.2,6,122.1,6c28.4,0,57-0.1,85.2-3.2
			c28.2-3.1,56.1-9.2,80.3-20.4"/>
		<path id="XMLID_1698_" class="st0" d="M47.6,564.7c-2.5,1.2-4.8,3-6.5,5.2c-1.8,2.4-2.9,5.2-4.1,7.9"/>
		<path id="XMLID_1697_" class="st0" d="M290.6,560.4c5,2.3,9.2,6.3,11.7,11.2"/>
		<path id="XMLID_1696_" class="st0" d="M302.1,572.5c10.2,3.6,19.6,9.1,27.9,16.1"/>
		<path id="XMLID_1695_" class="st0" d="M105,558c1,4.6,4.6,8.4,8.7,10.7c4.2,2.3,8.9,3.3,13.6,4.1c17.4,2.9,35.2,2.9,52.6,0
			c4.8-0.8,9.8-1.9,13.9-4.5c4.1-2.6,7.4-7.1,7.4-12"/>
		<path id="XMLID_1694_" class="st0" d="M205.5,552.6c-1,4.1,1.6,8.3,5.2,10.5c3.5,2.2,7.8,2.8,12,3.2c6.3,0.6,13.1,0.9,18.7-2
			c4.4-2.3,7.7-6.3,10.6-10.3"/>
		<path id="XMLID_1693_" class="st0" d="M267.1,558c0.6,2.4,2.6,4.2,4.9,5.1c2.3,0.9,4.7,1.1,7.2,1.2c4,0.1,8.3-0.3,11.3-3"/>
		<path id="XMLID_1692_" class="st0" d="M252.7,553.3c4.5,2.1,9.4,3.4,14.3,3.9"/>
		<path id="XMLID_1691_" class="st0" d="M204.6,552.9c-1.4,0.2-2.7,0.3-4.1,0.5"/>
		<path id="XMLID_1690_" class="st0" d="M102.1,548.5c-0.3,4,3,7.8,2.2,11.8c-0.8,3.8-5,5.8-8.7,7c-4.9,1.7-10.1,3.1-15.3,3
			c-5.2-0.1-10.6-1.8-14.2-5.6"/>
		<g id="XMLID_1_">
			<path id="XMLID_1685_" class="st0" d="M317.3,552.8c1,1.3,2.5,2.3,4.1,2.6c0.6,0.1,1.2,0.1,1.7-0.1c0.7-0.4,1-1.2,1-2
				c0-0.8-0.4-1.5-0.7-2.2c1.8-0.2,3.6-0.8,5.1-1.8c1.9-1.2,3.5-3.3,3-5.4c-0.4-1.5-1.8-2.6-3.3-2.9c1-1.2,1.8-2.5,2.4-4
				c0.4-1,0.5-2.4-0.4-2.8c-0.4-0.2-0.9-0.1-1.4-0.1c-0.5,0-1-0.1-1.1-0.6c-0.1-0.2,0-0.5,0.1-0.7c0.5-1.8,0.9-3.7,0.4-5.6
				c-0.5-1.8-2-3.5-3.9-3.5c0-1,0-2-0.2-3c-0.1-0.7-0.3-1.4-0.7-2c-0.7-0.8-1.9-1-2.9-0.7c-1,0.3-1.9,0.9-2.7,1.5
				c-0.9-1.5-2.2-2.8-3.9-3.1c-1.7-0.3-3.7,0.7-4,2.4c-1-1.2-3-1.5-4.2-0.5c-1.2,1-1.5,2.9-0.6,4.2"/>
			<path id="XMLID_1652_" class="st0" d="M305.5,522c-1.6-0.7-3.8,0.1-4.5,1.8c-0.7,1.7,0.2,3.8,1.9,4.5c-1.8,0.1-3.5,0.4-5.2,0.9
				c-0.7,0.2-1.4,0.5-1.8,1c-0.7,0.9-0.4,2.2,0.1,3.2c0.6,1.2,1.5,2.1,2.7,2.8c-1.8,1.1-3.3,2.7-4.3,4.6c-0.2,0.5-0.5,1-0.3,1.5
				c0.1,0.3,0.4,0.5,0.6,0.7c1,0.7,2,1.3,3.2,1.6c-0.8,1.1-1.6,2.5-1,3.7c0.6,1.3,2.4,1.4,3.9,1.3c0.3,0.5-0.7,1-0.5,1.6
				c0.1,0.2,0.2,0.3,0.4,0.4c1.6,1,3.6,2,5.4,1.3c0.3-0.1,0.7-0.3,1-0.2c0.2,0.1,0.3,0.2,0.5,0.4"/>
			<path id="XMLID_1581_" class="st0" d="M304.1,546.5c4,2.5,4.4,8.1,4.3,12.8c-0.1,5.5-0.2,11-0.3,16.5"/>
			<path id="XMLID_4_" class="st0" d="M308,546.3c1.1,0.2,1.7,1.3,2.1,2.4c0.5,1.2,0.9,2.4,1.4,3.6"/>
			<path id="XMLID_3_" class="st0" d="M316.1,543.8c-1.3,0.4-2.1,2.2-2.7,3.8c-0.7,1.8-1.4,3.6-2.1,5.4"/>
			<path id="XMLID_2_" class="st0" d="M319.1,544.3c-1.4,3.3-1.6,6.9-1.7,10.5c-0.2,8,0.2,15.9,1.2,23.8"/>
		</g>
	</g>
	<g>
		<path class="st0" d="M1165.7,48.2c-3.8-1.8-7.8-3.6-12.2-3.6c-1.4,0-2.8,0.2-4.2,0.5c-1.9,0.4-3.7,0.9-5.3,1.8
			c-3.6,2-3.9,5.2-3.3,8.6c0.2,1.1,3.3,9,5.5,8.3c-3.3,1.1-6.5,2.2-9.8,3.3c3.4,1.9,7.8,2.5,11.7,1.6"/>
		<path class="st0" d="M1164.2,47.9c6.3,2.7,13.1,4.5,19.5,7.1c6.4,2.6,12.5,6.3,15.8,11.7c0.4,0.6,0.7,1.3,0.7,1.9
			c-0.1,1.3-1.6,2.3-3,2.7c-2.8,0.9-6.1,0.8-8.9-0.4"/>
		<path class="st0" d="M1145.9,69c4.3-0.3,8.5-0.6,12.8-0.8c1.7-0.1,3.5-0.3,4.8-1.2c1.3-0.9,1.8-2.9,0.4-3.8"/>
		<path class="st0" d="M1137.9,67.3c4.9-0.6,9.8-0.9,14.8-0.8"/>
		<path class="st0" d="M1156.4,66.4c1.4-0.2,2.9-0.4,4.3-0.6c0.9-0.1,1.8-0.3,2.6-0.7c0.8-0.4,1.4-1.2,1.3-2"/>
		<path class="st0" d="M1150.1,62.6c8.5-1.2,17.5-0.1,25.3,3.2"/>
		<path class="st0" d="M1167.6,63.6c1.4,3.5,3,7.2,6.6,9.1c1.5,0.8,3.3,1.2,4.5,2.3c0.4,0.3,0.9,0.8,1.4,0.6
			c0.2-0.1,0.3-0.2,0.4-0.4c0.4-0.6,0.9-1.2,1.4-1.8"/>
		<path class="st0" d="M1179.7,81.7c0.4-1.2,1.9-2.1,3.3-2c0.6,0,1.2,0.3,1.8,0.1c0.4-0.1,0.7-0.4,1-0.6c1.1-1.1,2.1-2.3,2.7-3.6
			c0.4-0.7,0.6-1.5,0.4-2.3c-0.2-0.8-1-1.5-1.9-1.4"/>
		<path class="st0" d="M1190.9,72.1c0.2,2.3-0.8,4.7-2,6.8c-1.2,2.1-2.7,4.2-3.3,6.5c-0.5-1.2-1.4-2.3-2.7-3"/>
		<path class="st0" d="M1185.5,84.9c-0.4,1.3-0.8,2.6-0.8,3.9c0,1.3,0.4,2.7,1.4,3.7"/>
		<path class="st0" d="M1146.8,69.5c-0.1,0.8,0,1.6,0.3,2.3c0.5,1.2,1.6,2.2,1.9,3.4c0.4,1.4-0.2,2.7-0.6,4.1
			c-0.4,1.6-0.4,3.2,0,4.7c0.1,0.3,0.2,0.7,0.5,0.9c0.6,0.5,1.5,0.3,2.2,0c0.7-0.3,1.4-0.8,2.2-0.8"/>
		<path class="st0" d="M1151.1,84.8c0.5,0.3,0.7,0.8,0.6,1.4c0,0.5-0.1,1.1,0.1,1.5c0.2,0.5,1,0.8,1.4,0.5c-0.5,0.3-0.4,1,0,1.4
			c0.4,0.4,0.9,0.7,1.3,1.1c1.1,1.3-0.1,3.7,1.5,4.6"/>
		<path class="st0" d="M1152.7,88.2c1.5-1.5,3.9-2.2,6.1-1.9c-1.4,0.5-2.7,1-4.1,1.4"/>
		<path class="st0" d="M1148.5,110.5c2.3-4.4,4.6-8.9,8-12.7c3.4-3.8,8.1-7,13.6-8.1c8.9-1.7,18.1,2.6,23.8,8.6
			c1.1,1.1,2.2,2.4,3.8,2.8"/>
		<path class="st0" d="M1148.5,110.5c1.2,6.6-1.2,13.2-3.6,19.5c-1.6,4.1-3.1,8.1-4.6,12.2c-0.2,0.5-0.4,1.1-0.9,1.5
			c-0.6,0.4-1.6,0.4-2.3,0.7c-1.6,0.6-2.2,2.4-2.1,3.9c0.1,1.5,0.5,3.1-0.1,4.6c-0.6,1.4-2,2.4-3.2,3.5c-1.2,1.1-2.1,2.7-1.4,4.1
			c0.2,0.5,0.6,0.9,0.6,1.4c0,0.5-0.5,0.9-0.9,1.3c-1.8,1.8-2.2,4.3-2.6,6.6c-0.1,0.7-0.2,1.3-0.3,2c-1,6.1-2.4,12.9-8,16.6"/>
		<path class="st0" d="M1138.2,144.3c6.2-4.1,13.5-7.2,17.9-12.7"/>
		<path class="st0" d="M1134.8,159.2c2.5-1.1,4.3-3.2,6.7-4.3c3.8-1.7,8.4-0.9,12.7-0.9"/>
		<path class="st0" d="M1127.6,170.7c1.6-0.7,3.1-1.3,4.7-2"/>
		<path class="st0" d="M1150.6,121.7c2.9-2.9,5.8-5.9,9.6-8c4.1-2.3,8.9-3.5,12.9-5.8"/>
		<path class="st0" d="M1155.2,113.1c3.9-4.2,8.9-7.5,14.7-9.5"/>
		<path class="st0" d="M1197.6,101.7c3.8,2.7,6.2,6.8,10.2,9.3c1.6,1,3.5,1.7,5.1,2.7c1.8,1.1,3.4,2.5,5,3.9
			c3.4,3.1,6.9,6.3,9.2,10.1c0.5,0.9,1,1.9,1.7,2.7c0.9,1,2.1,1.8,3.1,2.6c2.5,2,4.5,4.5,6.1,7.1c0.9,1.5,1.8,3.1,1.8,4.8
			c0.1,3.2-2.7,5.8-4.3,8.7c-1.1,2-1.7,4.3-3.1,6.1c-1.3,1.8-3.3,3.2-4.8,4.9c-1.4,1.7-2.2,3.7-3.4,5.5c-1.4,2-3.2,3.8-5,5.5
			c-2.9,2.9-5.9,5.7-8.8,8.6c-0.6,0.6-1.2,1.2-2,1.4c-0.9,0.3-1.9,0.2-2.8,0c-3-0.5-5.9-1.3-8.7-2.4"/>
		<path class="st0" d="M1191.7,167.3c2.1-0.4,3.1-2.4,4.3-4c0.8-1.1,1.9-2.2,3.2-3c0.2-0.1,0.4-0.3,0.7-0.3c0.4,0,0.7,0.1,1.1,0
			c0.4-0.1,0.7-0.4,0.9-0.8c0.6-1.1,0.8-2.3,1.4-3.5c0.6-1.1,1.6-2.2,3-2.4c0.3,0,0.7-0.1,0.8-0.3c0.1-0.3-0.1-0.6-0.3-0.8
			c-0.6-0.7-0.8-1.6-0.6-2.5c0.1-0.3,0.1-0.6,0-0.8c-0.2-0.3-0.7-0.4-1.1-0.6c-0.9-0.2-1.6-0.8-2-1.6c-0.1-0.3-0.3-0.6-0.6-0.8
			c-0.3-0.1-0.6-0.1-1,0c-1.9,0.4-4.3,0.3-5.5-1"/>
		<path class="st0" d="M1204.8,128.6c-1.4,4.5-3.6,8.7-6.2,12.7c-1.4,2-2.8,4-4,6.1c-3.7,6.9-3.7,14.8-2.2,22.3
			c0.3,1.7,0.7,3.3,0.8,5c0.1,2.4-0.6,4.8-0.7,7.3c-0.3,5.3,1.8,10.3,3.1,15.4c0.3,1.2,0.5,2.5,0.9,3.7c0.5,1.3,1.2,2.5,1.8,3.7
			c2.4,4.8,3,10.1,3.3,15.3"/>
		<path class="st0" d="M1191.8,221.2c3.5-0.4,7-0.9,10.4-1.3c-4.4-1.6-8.4-3.4-13.1-3.9c-5-0.5-9.9-0.9-14.9-1.4
			c-3-0.3-6.1-0.6-9.1-0.6c-2.8,0-5.7,0.1-8.5,0.3c-3.4,0.2-7.3,0-10.5,1c-2.4,0.7-4.5,1.8-7.1,2.2"/>
		<path class="st0" d="M1139,217.4c-0.1,0.5-0.7,0.8-1.2,0.6c0.8-7.7,3.8-15.5,2.5-23.2"/>
		<path class="st0" d="M1119,189.2c3.2,5,9.1,8.7,15,11"/>
		<path class="st0" d="M1133.9,200.3c3.7-3.5,7.5-7.1,9.5-11.5c1.3-2.8,1.8-5.7,3-8.5c1.7-3.8,4.6-7,7.6-10.2
			c2.3-2.4,4.7-4.8,7.1-7.1c1.1-1.1,2.2-2.1,3-3.3c1.4-2.2,1.7-4.7,2.3-7.1c2.6-10.5,10.6-19.5,13.4-29.9"/>
		<path class="st0" d="M1189,124.5c-1,2.9-3.3,5.3-5.7,7.5c-1.8,1.6-3.7,3.1-5.6,4.4c-2.9,2-6.1,4-7.8,6.8"/>
		<path class="st0" d="M1220.8,148c-1.8-0.2-3.6,0.1-5.4,0.3c-3.8,0.4-7.8,0.3-11.6-0.4"/>
		<path class="st0" d="M1225.7,138.7c-3.2,0.1-6.4,0.7-9.3,1.7c-2.8,1-5.5,2.5-8.2,3.6c-2.8,1.2-5.8,2.1-8.9,1.9"/>
		<path class="st0" d="M1218.2,159.4c-1.1,0.3-2.3-0.2-3.3-0.6c-3.5-1.7-6.4-4.2-8.6-7.1"/>
		<path class="st0" d="M1193.2,186.2c2.1-2.1,4.2-4.3,6.3-6.4c0.2-0.2,0.5-0.5,0.5-0.8c0-0.3-0.2-0.6-0.5-0.9
			c-1.7-1.8-3.7-3.4-5.8-4.8"/>
		<path class="st0" d="M1194.8,170.9c2.6,1.8,5.3,3.6,6.9,6.2c0.5,0.8,0.8,1.6,1.2,2.4c1,1.9,2.2,3.8,3.5,5.5"/>
		<path class="st0" d="M1118.5,188.8c-5.9-0.7-12.1,2.4-14.3,7.2c-0.7,1.4-1,2.8-1.6,4.2c-0.9,2.3-2.5,4.4-2.4,6.8
			c0.1,2.2,1.7,4.1,3.3,5.9c1.1,1.3,2.2,2.6,3.3,3.8c0.2,0.2,0.3,0.4,0.6,0.5c1,0.6,2.3-0.5,2.3-1.5c0.1-1-0.6-1.9-0.9-2.9
			c-1-3.3,1.7-6.4,4.4-8.8c2.5-2.2,5.7-4.4,9.2-3.8"/>
		<path class="st0" d="M1122.7,201.1c1.1,1.8,1,3.9,0.7,5.9c-0.5,4-1.3,7.9-2.6,11.8"/>
		<path class="st0" d="M1116.6,201.7c-0.5,2.1-1.2,4.4-3.2,5.7c-1.1,0.7-2.4,1-3.6,1.2"/>
		<path class="st0" d="M1114.8,206.8c-0.4,3.2-0.8,6.5-1.2,9.7"/>
		<path class="st0" d="M1122.6,201.1c0.4-0.2,0.8,0,1.2,0.1c1,0.3,2.2,0.1,3.1-0.4c0.9-0.5,1.7-1.2,2.5-1.8"/>
		<path class="st0" d="M1117.9,287.2c4.7-6.6,10.5-12.5,17.1-17.6c5.8-4.4,12.3-8.2,18.2-12.5c4.5-3.3,8.7-7,12.9-10.6
			c5-4.4,10.2-8.8,13.7-14.2c3.5-5.2,5.8-11,9.1-16.2"/>
		<path class="st0" d="M1191.6,217c-4.1,8.6-8.9,17.9-15.6,25.1c-5.5,5.9-12.3,10.8-18.8,15.9c-13.3,10.5-25.2,22.3-35.5,35
			c-0.3,0.3-0.6,0.7-1.1,0.7c-0.4,0-0.7-0.2-1-0.4c-0.8-0.5-1.6-1-2.4-1.4c-0.4,0.8-1.7,1.2-2.6,0.9c-0.9-0.4-1.5-1.4-1.3-2.3
			c0.1-0.6,0.6-1.2,0.7-1.8c0.2-1-0.4-2-0.7-3c-0.8-2.1-0.6-4.4,0.5-6.4"/>
		<path class="st0" d="M1117.5,287.1c-0.4,0.1-0.9-0.1-1.2-0.4c-0.2-0.3-0.3-0.7-0.4-1.1c-0.2-1.4-0.4-2.7-0.6-4.1"/>
		<path class="st0" d="M1192.3,217.8c-0.3,4.2,0.2,8.4,1.6,12.4c0.2,0.7,0.5,1.4,0.4,2.1c-0.1,1.1-1,2.1-1.6,3.1
			c-2.2,4.1,1.2,8.8,0.6,13.3c-0.2,1.6-0.9,3.1-1,4.7c-0.3,4.4,3.9,8.6,2.4,12.8c-0.5,1.3-1.5,2.4-1.8,3.7c-0.5,2.5,1.4,4.7,2.5,7
			c2.4,5.1,0.5,11.2,2.6,16.4c0.6,1.6,1.6,3,2.3,4.5c2.8,5.8,2.7,14.8-3.9,18.6c-2.3,1.3-5,2.1-7.5,3.2c-5.5,2.4-10,6.3-12.9,11"/>
		<path class="st0" d="M1131.1,249.1c0.2-4.7,0.5-9.5,2.1-14c0.8-2.2,1.9-4.3,2.8-6.5c1.5-3.7,2.4-7.5,2.7-11.4"/>
		<path class="st0" d="M1127.1,256.1c2.6-3.9,5.2-7.9,7.8-11.8c2.4-3.7,4.9-7.4,8-10.6c1.1-1.1,2.8-2.3,4.3-1.8"/>
		<path class="st0" d="M1163.6,215.4c-4.2,6.4-8.5,13-13.7,18.8c-1,1.1-2,2.1-2.7,3.3c-0.9,1.5-1.3,3.1-1.9,4.8
			c-2.8,7.7-9.1,14.5-17.2,18.4"/>
		<path class="st0" d="M1128.6,259.5c4.7-6.3,9.4-12.6,14.1-18.9c0.2,1.1-0.2,2.1-0.7,3.1c-2.4,4.8-5.8,9.1-10.1,12.8"/>
		<path class="st0" d="M1129.8,259.8c-0.7,1-1.6,1.9-2.8,2.6c-0.6,0.4-1.6,0.7-2.1,0.2c-0.4-0.4-0.3-0.9-0.2-1.4
			c0.5-2,1.3-3.9,2.3-5.6"/>
		<path class="st0" d="M1147.1,232.1c-0.1-0.7,0.3-1.3,0.8-1.9c3.7-4.8,7.2-9.7,10.6-14.7"/>
		<path class="st0" d="M1132.1,258c1.2,4.8,0.2,9.8-0.8,14.7"/>
		<path class="st0" d="M1111.5,219.4c-0.2-0.9,0.4-1.8,1.3-2.2c0.9-0.5,1.9-0.6,3-0.6c1,0,2,0,3,0.1c0.9,0.1,1.9,0.3,2.4,1
			c0.7,1.1-0.6,2.4-0.5,3.7c-2.5-1.1-5.6-1.3-8.2-0.3"/>
		<path class="st0" d="M1111.8,219.9c-0.4,0.2-0.4,0.7-0.2,1.1c0.2,0.4,0.5,0.7,0.4,1.1c0,0.2-0.2,0.4-0.3,0.6
			c-0.9,1.3-1.1,2.9-0.6,4.3c2-1.3,4.9-1.6,7.1-0.6c0.3,0.1,0.7,0.3,1,0.3c0.7,0,1.2-0.7,1.4-1.3c0.3-0.9,0.4-1.9,0-2.8
			c-0.5-0.9-1.7-1.5-2.7-1.1"/>
		<path class="st0" d="M1111.5,227.4c-0.4,4.3-13.7,115.2-14.1,119.5"/>
		<path class="st0" d="M1117.9,227.4c-0.4,4.3-13.5,113.6-13.9,117.8"/>
		<path class="st0" d="M1134,311.8c-0.9-2-1.5-4.1-1.8-6.3c-0.3-1.7-0.4-3.5,0.5-5.1c0.5-0.9,1.3-1.7,1.8-2.7c1-1.9,0.8-4.1,0.5-6.1
			c-0.5-4.2-1-8.4-1.5-12.6"/>
		<path class="st0" d="M1134.4,311.6c-3.5,2.7-3.8,7.3-5.6,11c-2.1,4.2-6.3,7.5-7.6,12c-0.2,0.5-0.2,1.1,0.2,1.5
			c0.5,0.4,1.2,0.3,1.9,0.2c5.9-1.1,12.3-0.4,17.6,2c2.3,1,4.5,2.4,7,3c2,0.5,4.1,0.6,6.2,0.7c3.7,0.1,7.4,0.2,11.1,0.4
			c0.7,0,1.5,0,2.2-0.3c0.5-0.3,0.8-0.7,1-1.2c1.4-2.9-0.4-6.3,0.5-9.4c0.5-1.7,1.7-3.2,2.4-4.8c0.8-1.8,1-3.7,1.2-5.5
			c0.8-7,1.6-14.1,1.6-21.1c0-9.8-1.4-19.5-1.7-29.3c-0.2-5.8,0.1-11.6,1.2-17.3c1.1-5.5,4.6-10,5.8-15.5"/>
		<path class="st0" d="M1125.3,336.2c-0.2-0.2-0.6-0.1-0.8,0c-4.3,1.1-8,3.6-12.2,4.8c-2.6,0.8-5.5,1-8.3,0.7"/>
		<path class="st0" d="M1079.5,352.1c4.1-2.7,9.3-3.6,14.4-4.4c24.9-3.7,50.3-3.5,75.5-3.3c17.2,0.2,34.5,0.4,51.2,3.6
			c2,0.4,4.1,0.8,5.8,1.9"/>
		<path class="st0" d="M1079.5,356c4.1-2.7,9.3-3.6,14.4-4.4c24.9-3.7,50.3-3.5,75.5-3.3c17.2,0.2,34.5,0.4,51.2,3.6
			c2,0.4,4.1,0.8,5.8,1.9"/>
		<path class="st0" d="M1055.9,369.4c5.4-2.7,12.2-3.6,18.9-4.4c32.6-3.7,65.9-3.5,99-3.3c22.5,0.2,45.2,0.4,67.1,3.6
			c2.7,0.4,5.4,0.8,7.6,1.9"/>
		<path class="st0" d="M1056.6,379.1c5.4-2.7,12.2-3.6,18.9-4.4c32.6-3.7,65.9-3.5,99-3.3c22.5,0.2,45.2,0.4,67.1,3.6
			c2.7,0.4,5.4,0.8,7.6,1.9"/>
		<path class="st0" d="M1032.2,392.6c6.8-2.7,15.4-3.6,23.7-4.4c41-3.7,82.8-3.5,124.4-3.3c28.3,0.2,56.8,0.4,84.4,3.6
			c3.3,0.4,6.8,0.8,9.5,1.9"/>
		<path class="st0" d="M1200.5,312.5c2.3,2.6,3.2,5.9,3.4,9.2c0.2,3.3-0.4,6.5-1,9.8l-2.4,13.1"/>
		<path class="st0" d="M1196.4,326.6c-4.8-1.5-10.2,0-14.9,1.7c-5.1,1.9-10.2,4.2-13.2,8.2"/>
		<path class="st0" d="M1169.5,338.2c3.7,2.2,8.5,2.9,12.8,2c2.7-0.6,5.3-1.8,7.9-2.5c4-1.1,8.8-0.8,11.8,1.7"/>
		<path class="st0" d="M1194.9,306.1c-0.6,3.7-3.4,7-6.7,9.3c-3.4,2.4-7.4,3.9-11.3,5.5"/>
		<path class="st0" d="M1153.4,304.7c-6.3,2-12.4,4.4-18.2,7.3c-1.3,0.6-2.6,1.3-3.2,2.5"/>
		<path class="st0" d="M1079.9,363.9c-0.4-4.5-0.3-7.8-0.3-8.1c0.1-0.7-0.6-1.3-0.6-2c0-0.7,0.5-1.5,1.3-1.6"/>
		<path class="st0" d="M1226.1,363.6c0.3-4.2,0.3-9.2,1-9.6c0.7-0.4,0.4-1.6,0.3-2.4c-0.1-0.8-0.6-1.6-1.4-1.8"/>
		<path class="st0" d="M1056.3,379c0.1-3.1,0-6.2-0.1-9.3"/>
		<path class="st0" d="M1248.8,376.5c0.1-3.2,0.1-6.4,0-9.5"/>
		<path class="st0" d="M1248.1,386.9c0.2-3.4,0.2-6.8,0-10.2"/>
		<path class="st0" d="M1274.2,412.1c0.2-7.2,0.3-14.4,0-21.5"/>
		<path class="st0" d="M1274.3,492.3c0.2-15.5,0.2-31,0-46.5"/>
		<path class="st0" d="M1057.3,388.7c-0.1-3.3-0.3-6.6-0.5-9.9"/>
		<path class="st0" d="M1032.5,415.3c-0.1-7.6-0.3-15.2-0.5-22.7"/>
		<path class="st0" d="M1034.7,494.4c-0.1-15-0.3-30-0.5-45"/>
		<path class="st0" d="M1023.4,606.1c-0.1-35.7-0.3-71.4-0.5-107"/>
		<path class="st0" d="M1286.8,604.1c-0.1-35.9-0.3-71.8-0.5-107.6"/>
		<path class="st0" d="M1088.3,376.7c-0.4,2.8-0.5,5.6-0.3,8.3"/>
		<path class="st0" d="M1088,385.1c1.8-0.1,3.8,0.1,5.6,0c-0.1-2.6-0.1-5.9,0-8.5"/>
		<path class="st0" d="M1088.3,376.7c1.4-0.3,3.8-0.5,5.3-0.5"/>
		<path class="st0" d="M1106.9,375c-0.6,2.8-0.8,5.6-0.4,8.3"/>
		<path class="st0" d="M1106.5,383.3c2.9-0.1,5.9,0.1,8.8,0c-0.1-2.6-0.2-5.9,0-8.5"/>
		<path class="st0" d="M1106.9,375c2.2-0.3,6-0.5,8.3-0.4"/>
		<path class="st0" d="M1130.7,374.4c-0.8,2.8-0.9,5.6-0.5,8.3"/>
		<path class="st0" d="M1130.2,382.7c3.6-0.1,7.3,0.1,10.9,0c-0.1-2.6-0.2-5.9,0-8.5"/>
		<path class="st0" d="M1130.7,374.4c2.8-0.3,7.5-0.5,10.4-0.5"/>
		<path class="st0" d="M1166.4,374.4c0.8,2.8,0.9,5.6,0.5,8.3"/>
		<path class="st0" d="M1166.9,382.7c-3.6-0.1-7.3,0.1-10.9,0c0.1-2.6,0.2-5.9,0-8.5"/>
		<path class="st0" d="M1166.4,374.4c-2.8-0.3-7.5-0.5-10.4-0.5"/>
		<path class="st0" d="M1191.6,374.4c0.8,2.8,0.9,5.6,0.6,8.3"/>
		<path class="st0" d="M1192.2,382.7c-3.6-0.1-7.3,0.1-10.9,0c0.1-2.6,0.2-5.9,0-8.5"/>
		<path class="st0" d="M1191.6,374.4c-2.8-0.3-7.5-0.5-10.4-0.5"/>
		<path class="st0" d="M1215.6,374.5c0.5,2.8,0.7,5.6,0.4,8.3"/>
		<path class="st0" d="M1216,382.8c-2.6-0.1-5.3,0.1-7.9,0c0.1-2.6,0.1-5.9,0-8.5"/>
		<path class="st0" d="M1215.6,374.5c-2-0.3-5.4-0.5-7.5-0.5"/>
		<path class="st0" d="M1231.4,376c0.4,2.8,0.5,5.6,0.3,8.3"/>
		<path class="st0" d="M1231.7,384.4c-1.9-0.1-3.8,0.1-5.7,0c0.1-2.6,0.1-5.9,0-8.5"/>
		<path class="st0" d="M1231.4,376c-1.5-0.3-3.9-0.5-5.4-0.4"/>
		<path class="st0" d="M1244.7,377.8c0.3,2.8,0.4,5.6,0.2,8.3"/>
		<path class="st0" d="M1244.9,386.2c-1.4-0.1-2.9,0.1-4.3,0c0.1-2.6,0.1-5.9,0-8.5"/>
		<path class="st0" d="M1244.7,377.8c-1.1-0.3-2.9-0.5-4.1-0.5"/>
		<path class="st0" d="M1071.1,377.7c-0.4,2.8-0.5,5.6-0.3,8.3"/>
		<path class="st0" d="M1070.8,386.1c1.8-0.1,3.8,0.1,5.6,0c-0.1-2.6-0.1-5.9,0-8.5"/>
		<path class="st0" d="M1071.1,377.7c1.5-0.3,3.8-0.5,5.3-0.4"/>
		<path class="st0" d="M1061.1,379.2c-0.2,2.8-0.2,5.6-0.1,8.3"/>
		<path class="st0" d="M1060.9,387.5c0.9-0.1,1.9,0.1,2.8,0c0-2.6-0.1-5.9,0-8.5"/>
		<path class="st0" d="M1061.1,379.2c0.7-0.3,1.9-0.5,2.7-0.5"/>
		<path class="st0" d="M1012.3,430.9c-0.1-0.8,0.9-2.9,1.7-3.4c6.2-4.4,12.5-8.7,18.7-13.1"/>
		<path class="st0" d="M1274.1,413.1c6.9,3.5,13.2,8,18.6,13.1"/>
		<path class="st0" d="M1012.3,430.9c4.8-3.6,11.1-5.2,17.4-5.7c89.9-7.9,203.5-8.6,263.1,1.1"/>
		<path class="st0" d="M1012.6,435.5c4.7-3.6,11.1-5.2,17.4-5.7c89.9-7.9,203.6-8.6,263.1,1.1"/>
		<path class="st0" d="M1034.4,450.4c4.1-3.6,9.5-5.2,14.8-5.7c76.9-7.9,174-8.6,225,1.1"/>
		<path class="st0" d="M1021.3,500.3c4.5-3.6,10.5-5.2,16.4-5.7c84.9-7.9,192.2-8.6,248.5,1.1"/>
		<path class="st0" d="M1022.6,506.2c4.5-3.6,10.5-5.2,16.4-5.7c84.9-7.9,192.2-8.6,248.5,1.1"/>
		<path class="st0" d="M1009.3,606.6c4.9,0.7,11.6,1,18.1,1c93.5,0.5,211.7-0.8,273.6-3.8"/>
		<path class="st0" d="M1012.3,431c-0.2,1.6-0.1,3.3,0.2,4.9"/>
		<path class="st0" d="M1011.9,436.2c7.5,4.4,15,8.8,22.5,13.2"/>
		<path class="st0" d="M1273.9,445.7c6.7-5,13.4-10.1,20.1-15.1"/>
		<path class="st0" d="M1050.4,470.1c-0.4,6.2-0.4,12.5,0,18.7"/>
		<path class="st0" d="M1050.6,470.1c2.7-0.7,5.6-0.8,8.4-0.3"/>
		<path class="st0" d="M1059.5,470.6c0.2,1.3,0.1,2.7,0,4c-0.2,4.7-0.5,9.4-0.7,14.1"/>
		<path class="st0" d="M1071.1,470.3c-0.5,6.2-0.5,12.5,0,18.7"/>
		<path class="st0" d="M1071.3,470.4c3.4-0.7,7-0.8,10.4-0.3"/>
		<path class="st0" d="M1081.7,470.1c0,2.2,0.3,3.6,0.2,4.9c-0.3,4.7-0.2,8.5-0.4,14"/>
		<path class="st0" d="M1094.1,468.1c-0.2,8-0.4,11.4-0.1,20.4"/>
		<path class="st0" d="M1094.4,468.1c5.1-0.8,10.5-0.9,15.6-0.3"/>
		<path class="st0" d="M1110.5,468.1c0,2.8-0.1,5.5-0.1,6.5c-0.1,5.2-0.1,8.9-0.6,14.1"/>
		<path class="st0" d="M1040.2,511.7c-0.2,37.7-0.4,53.9-0.1,96.1"/>
		<path class="st0" d="M1040.5,511.9c5.1-3.5,10.5-4,15.6-1.3"/>
		<path class="st0" d="M1056.5,511.7c0,12.9-0.1,25.5-0.1,30.3c-0.1,24.3-0.1,41.6-0.6,65.8"/>
		<path class="st0" d="M1060,510.5c-0.2,37.5-0.6,53.6-0.2,95.5"/>
		<path class="st0" d="M1060.4,510.8c6.7-3.6,13.9-4.1,20.8-1.4"/>
		<path class="st0" d="M1081.7,510.5c0,13-0.1,25.7-0.1,30.5c-0.2,24.5-0.2,41.9-0.8,66.3"/>
		<path class="st0" d="M1086.5,509.1c-0.2,37.9-0.6,54.3-0.2,96.7"/>
		<path class="st0" d="M1086.9,509.4c7.6-3.6,15.7-4.1,23.5-1.4"/>
		<path class="st0" d="M1111,509.1c-0.1,13.1-0.1,26-0.2,30.8c-0.2,24.8-0.2,42.4-0.9,67.1"/>
		<path class="st0" d="M1116.8,507.8c-0.3,39-0.7,55.9-0.2,99.6"/>
		<path class="st0" d="M1117.3,508.1c8.4-3.8,17.5-4.2,26-1.4"/>
		<path class="st0" d="M1144,507.8c-0.1,13.3-0.1,26.4-0.2,31.4c-0.2,25.2-0.2,43.1-1,68.2"/>
		<path class="st0" d="M1177.7,509.2c0.3,38.5,0.8,55.2,0.3,98.3"/>
		<path class="st0" d="M1177.2,509.4c-9.1-3.7-18.8-4.2-28-1.4"/>
		<path class="st0" d="M1148.4,509.2c0.1,13.1,0.1,26,0.2,30.8c0.3,24.8,0.3,42.3,1,67.1"/>
		<path class="st0" d="M1213.9,509.1c0.3,38.2,0.8,54.6,0.3,97.4"/>
		<path class="st0" d="M1213.4,509.3c-8.7-3.6-18.1-4.1-27-1.4"/>
		<path class="st0" d="M1185.6,509.1c0.1,13,0.1,25.7,0.2,30.5c0.2,24.5,0.3,41.9,1,66.4"/>
		<path class="st0" d="M1243.2,509.9c0.2,37.7,0.6,54,0.2,96.2"/>
		<path class="st0" d="M1242.8,510.1c-7.5-3.5-15.5-4-23.2-1.3"/>
		<path class="st0" d="M1219,509.9c0.1,12.7,0.1,25.2,0.2,29.9c0.2,24,0.2,41.1,0.9,65.1"/>
		<path class="st0" d="M1271.5,510.7c0.2,36.8,0.6,52.6,0.2,93.8"/>
		<path class="st0" d="M1271.1,510.9c-7.5-3.5-15.5-4-23.2-1.3"/>
		<path class="st0" d="M1247.3,510.7c0.1,12.7,0.1,25.2,0.2,29.9c0.2,24,0.2,41.1,0.9,65.1"/>
		<path class="st0" d="M1124,467.9c-0.2,8.3-0.5,11.9-0.2,21.2"/>
		<path class="st0" d="M1124.3,467.9c5.3-0.8,11.1-0.9,16.5-0.3"/>
		<path class="st0" d="M1141.3,467.9c0,2.9-0.1,5.7-0.1,6.8c-0.2,5.4-0.2,9.3-0.6,14.7"/>
		<path class="st0" d="M1155.2,466.7c-0.2,8.3-0.5,11.9-0.2,21.2"/>
		<path class="st0" d="M1155.5,466.7c5.7-0.8,11.8-0.9,17.5-0.3"/>
		<path class="st0" d="M1173.5,466.7c0,2.9-0.1,5.7-0.1,6.8c-0.2,5.4-0.2,9.3-0.6,14.7"/>
		<path class="st0" d="M1186,466.4c-0.2,8.3-0.5,11.9-0.2,21.2"/>
		<path class="st0" d="M1186.3,466.4c5.7-0.8,11.8-0.9,17.5-0.3"/>
		<path class="st0" d="M1204.3,466.4c0,2.9-0.1,5.7-0.1,6.8c-0.2,5.4-0.2,9.3-0.6,14.7"/>
		<path class="st0" d="M1215,467.2c-0.2,8.2-0.4,11.8-0.1,21"/>
		<path class="st0" d="M1215.3,467.3c4.9-0.8,10.3-0.9,15.3-0.3"/>
		<path class="st0" d="M1231,467.2c0,2.8-0.1,5.6-0.1,6.7c-0.1,5.4-0.1,9.2-0.6,14.5"/>
		<path class="st0" d="M1241.6,467.6c-0.1,8.8-0.2,12.6-0.1,22.4"/>
		<path class="st0" d="M1241.7,467.7c2.5-0.8,5.2-1,7.7-0.3"/>
		<path class="st0" d="M1249.6,467.6c0,3,0,6-0.1,7.2c-0.1,5.8-0.1,9.8-0.3,15.6"/>
		<path class="st0" d="M1037.2,472.3c1.8-0.3,3.6-0.4,5.4-0.3"/>
		<path class="st0" d="M1042.4,471.8c0.7,5.9,1.1,11.8,1.1,17.7"/>
		<path class="st0" d="M1259.6,469.4c-0.3,4.2-0.4,8.3,0,12.5c0.2,2.7,0.5,5.3,0.3,8"/>
		<path class="st0" d="M1259.2,469.3c2.7,0.1,5.5,0.1,8.2,0.2"/>
		<path class="st0" d="M1267.5,469.8c0.5,7.2,0.8,14.5,0.8,21.7"/>
	</g>
	<g>
		<path class="st0" d="M371.9,516.5c-0.1-0.9,1.4-1.6,1-2.5c-0.3-0.6-1.4-0.6-2-0.2c-0.6,0.4-0.8,1.1-1,1.7c0.1-0.5,0.1-0.9-0.1-1.4
			c-0.2-0.4-0.7-0.8-1.2-0.8c-0.5,0.1-0.9,0.5-1,0.9c-0.1,0.4,0,0.9,0.2,1.3c-0.2-0.8-0.9-1.4-1.8-1.6c-0.2,0-0.3,0-0.5,0
			c-0.3,0.1-0.4,0.5-0.3,0.8c0.2,0.8,0.9,1.6,1.8,1.9c-0.6-0.3-1.2-0.5-1.9-0.6c-0.3,0-0.5,0-0.8,0.1c-0.8,0.3-0.6,1.5,0.2,1.8
			c0.8,0.4,1.8,0.2,2.6,0c-0.5,0.2-1,0.4-1.3,0.7c-0.4,0.3-0.5,0.8-0.3,1.2c0.3,0.5,1.2,0.7,1.8,0.4c0.6-0.2,1.1-0.7,1.5-1.2
			c-0.2,0.5-0.4,1-0.3,1.5c0.1,0.5,0.6,0.9,1.3,0.9c0.6,0,1.1-0.5,1.2-1c0.1-0.5,0-1-0.2-1.5c0.6,0.4,0.8,1.1,1.4,1.5
			c0.6,0.4,1.7,0.4,1.9-0.2c0.1-0.3-0.1-0.6-0.3-0.8c-0.3-0.4-0.7-0.7-1.1-0.9c0.6,0.3,1.4,0.4,2,0.1c0.2-0.1,0.4-0.2,0.5-0.3
			c0.2-0.3-0.1-0.8-0.5-1c-0.4-0.2-0.9-0.1-1.4,0c0.7-0.2,1.4-0.3,2.1-0.5c0.2,0,0.3-0.1,0.4-0.2c0-0.1,0-0.2-0.1-0.2
			c-0.4-0.4-1.1-0.5-1.7-0.4c-0.6,0.1-1.1,0.4-1.6,0.7"/>
		<path class="st0" d="M369.6,516.4c0.8-0.3,1.8,0.6,1.5,1.3c-0.3,0.7-1.7,0.8-2.1,0.1c-0.4-0.7,0.4-1.6,1.3-1.4"/>
		<path class="st0" d="M452.6,531.3c0.1,0.8-1.5,1.5-1.1,2.2c0.3,0.5,1.5,0.6,2.2,0.2c0.6-0.4,0.9-1,1.1-1.6
			c-0.1,0.4-0.1,0.8,0.1,1.2c0.2,0.4,0.8,0.7,1.4,0.7c0.6,0,1-0.4,1.1-0.8c0.1-0.4-0.1-0.8-0.2-1.2c0.2,0.7,1,1.3,2,1.4
			c0.2,0,0.4,0,0.5,0c0.4-0.1,0.4-0.4,0.4-0.7c-0.2-0.7-1-1.4-2-1.6c0.6,0.3,1.3,0.5,2.1,0.6c0.3,0,0.6,0,0.9,0
			c0.9-0.3,0.7-1.3-0.2-1.6c-0.9-0.3-1.9-0.2-2.9,0c0.5-0.2,1.1-0.3,1.4-0.6c0.4-0.3,0.6-0.7,0.4-1.1c-0.3-0.5-1.3-0.6-2-0.4
			c-0.7,0.2-1.2,0.7-1.6,1.1c0.3-0.4,0.5-0.9,0.3-1.3c-0.1-0.4-0.7-0.8-1.4-0.8c-0.7,0-1.2,0.5-1.3,0.9c-0.1,0.5,0.1,0.9,0.2,1.4
			c-0.6-0.4-0.9-1-1.6-1.3c-0.6-0.4-1.9-0.4-2.1,0.2c-0.1,0.3,0.1,0.5,0.3,0.8c0.3,0.3,0.8,0.6,1.2,0.8c-0.6-0.3-1.5-0.3-2.2-0.1
			c-0.2,0.1-0.4,0.1-0.5,0.3c-0.3,0.3,0.1,0.7,0.5,0.9c0.5,0.1,1,0.1,1.5,0c-0.8,0.2-1.5,0.3-2.3,0.5c-0.2,0-0.4,0.1-0.4,0.2
			c0,0.1,0,0.2,0.1,0.2c0.4,0.4,1.2,0.5,1.8,0.4c0.7-0.1,1.2-0.4,1.8-0.6"/>
		<path class="st0" d="M455.2,531.4c-0.9,0.2-2-0.5-1.6-1.1c0.3-0.6,1.9-0.7,2.3-0.1c0.5,0.6-0.4,1.4-1.4,1.3"/>
		<path class="st0" d="M356.9,511.8c-0.5-0.3-1.3,0.1-1.3,0.7c-0.1,0.6,0.5,1.1,1.1,1.1c0.8,0.1,1.5-0.5,1.5-1.2
			c-0.1-0.7-1.1-1.2-1.7-0.8"/>
		<path class="st0" d="M354.3,513.7c0.1-0.2-0.3-0.3-0.5-0.2c-1.3,0.4-2.5,1.2-3.2,2.3c-0.1,0.1-0.2,0.3-0.1,0.4
			c0.1,0.4,0.8,0.3,1.1,0.1c1.1-0.6,2.2-1.3,3.2-1.9c-0.3,0.7-0.6,1.4-0.3,2.1c0.3,0.7,1.3,1.1,1.9,0.6c0.2-0.2,0.3-0.4,0.3-0.6
			c0.2-0.6,0.3-1.2,0.4-1.8c0.2,0.7,0.6,1.4,1,2.1c0.2,0.2,0.4,0.5,0.7,0.6c0.3,0.1,0.7,0.1,0.9-0.2c0.1-0.2,0.1-0.4,0.1-0.6
			c0-0.6-0.2-1.2-0.6-1.7c0.7,0.4,1.3,0.8,2,1.2c0.3,0.2,0.9,0.3,1,0c0.1-0.2,0-0.4-0.2-0.6c-0.4-0.6-0.9-1.1-1.4-1.6
			c0.9,0.1,1.7,0.1,2.6-0.1c0.2-0.1,0.5-0.1,0.6-0.4c0.1-0.3-0.3-0.5-0.6-0.6c-0.8-0.3-1.5-0.5-2.3-0.7c0.8,0.2,1.7,0,2.2-0.5
			c0.2-0.1,0.3-0.3,0.2-0.5c-0.1-0.2-0.3-0.3-0.6-0.4c-1.1-0.2-2.2-0.2-3.2,0.1c0.8-0.6,1.5-1.2,2.1-2c0.1-0.2,0.3-0.4,0.1-0.6
			c-0.1-0.1-0.3-0.2-0.5-0.2c-1.4,0-2.9,0.7-3.6,1.8c-0.3-0.7-0.7-1.3-1.2-1.8c-0.1-0.1-0.2-0.2-0.4-0.2c-0.3,0-0.5,0.3-0.6,0.5
			c-0.2,0.7-0.1,1.4,0.2,2c-1.1-0.7-2.3-1.1-3.6-1.1c-0.2,0-0.5,0-0.7,0.1c-0.4,0.3-0.3,0.8,0,1.2s0.7,0.6,1,0.9
			c-0.6-0.3-1.2-0.7-1.9-0.6c-0.7,0.1-1.3,0.8-0.9,1.4c0.1,0.2,0.3,0.3,0.6,0.4c1,0.5,2.2,0.6,3.3,0.3"/>
		<path class="st0" d="M289.4,515.1c-0.8-0.2-0.7-1.4,0-1.8c0.7-0.4,1.6-0.2,2.4,0c-0.4-0.4-0.9-0.8-1.1-1.4s0-1.2,0.5-1.5
			c0.6-0.3,1.4,0.1,2,0c-0.8-0.1-1-1.3-0.3-1.8c0.7-0.5,1.6-0.3,2.3,0.2c-0.5-0.7-0.1-1.8,0.8-2c0.9-0.2,1.9,0.4,2,1.2
			c0.1-1.4,0.6-3,2.3-3.1c1.6-0.1,3.1,1.7,2.2,2.9c0.9-1,2.2-1.7,3.5-2c1,1.2,1.4,2.7,1.1,4.1c1-1,2.3-1.8,3.8-2.2
			c0.2,1.1,0.4,2.1,0.6,3.2c0.4-1,1.5-2,2.7-1.8c1.2,0.2,1.9,1.9,0.9,2.5c1.3-1,2.5-2,3.8-3c0.8,0.8,1.1,2.1,0.8,3.1
			c0.5-1.3,1.8-2.5,3.3-2.5c1.5,0,2.9,1.7,2,2.9c0.6-1.7,2.9-2.6,4.7-2.1c-0.1-1.4,0.3-2.9,1.6-3.5c1.3-0.7,3.3,0.3,3.1,1.6
			c-1.1-2.7,2.9-5.6,5.5-4c-0.6-1.7,2.3-3.4,3.7-2.1c-0.9-0.7-0.3-2.2,0.8-2.5c1.1-0.3,2.3,0.3,3,1.2c-0.4-1.3,0.8-2.8,2.2-3
			c1.5-0.1,2.9,1.2,2.7,2.6c0-1.5,2.1-2.6,3.6-1.9c1.5,0.7,1.8,2.7,0.9,3.9c1.1-1,2.7-1.8,4.2-1.4c1.5,0.4,2.4,2.4,1.3,3.4
			c0.9-1,2.4-1.7,3.7-1.4c1.4,0.3,2.3,1.9,1.5,3c0.4-1.2,2-2,3.3-1.6c1.3,0.4,2.1,1.9,1.6,3.1c0.8-1,1.8-2,3.1-2.2
			c1.3-0.2,2.9,1.1,2.2,2.2c0.8-0.7,1.9-1.2,3-1.2c0.7,1,1,2.3,0.8,3.4c0.8-1.2,2.9-3.8,4.6-3.8c1.3,0,2.4,1,2.4,2.2
			c-0.9-0.6-0.8-2.1,0.2-2.6c1-0.5,2.4,0.4,2.3,1.4c-1.1-1.1,0.3-3,1.8-2.9c1.6,0.1,2.7,1.6,2.7,3.1c-1.1-0.6-0.6-2.4,0.7-2.7
			c1.3-0.3,2.6,0.6,3.1,1.6c-0.6-1,0-2.4,1.2-2.7c0.1,0,5.8,1.1,6,1.2c1,0.6,1.4,2,0.7,2.9c2.1-0.6,4.4,1.9,3.4,3.7
			c1.6-1.1,4.1,1.4,2.8,2.8c1.1-0.6,2.4-1.2,3.7-1.1c1.3,0.1,2.6,1.2,2.3,2.3c1.3-1.9,5.1-1.6,6,0.5c1.1-1.8,4.3-1.9,5.6-0.3
			c1.1-1.4,3.5-1.5,4.8-0.2c-0.3-1.2,1.3-2.1,2.6-2.1c1.3,0,2.6,0.4,3.9,0.2c0.9-0.1,1.7-0.6,2.6-0.6c0.9,0,2,0.6,1.9,1.4"/>
		<path class="st0" d="M589.7,542.9c-1.1-1.9-2,0.5-2,1.6c0-2.3-3.6-1.4-2.4,0.5c0.8-1.9-2-3.1-3.1-1.4c1.7-2-1.8-4.1-3.1-1.8
			c2.1-2.9-2.5-6-4.9-3.3c2-3.2-2.7-6.5-5.5-3.8c2.8-2.8-3-5.9-4.3-2.2c4.3-4.1-4.4-5.2-2.7-1.9c0.7-0.9,1-3.3-0.2-4
			c-1.4-0.8-2.7,2.2-2.9,3.4c-0.3-1-0.5-2-0.8-3c-1.4,0.3-2.4,1.3-2.6,2.5c-0.2-0.5-1.4-2.5-2.1-2.4c-0.9,0.1-1.1,2.1-1.1,2.7
			c-0.4-0.9-1-1.6-1.8-2.2c-0.7,0.9-1.1,1.9-1.2,3c-0.2-0.4-1.9-2.2-2.7-1.7c-0.7,0.4-0.1,2.7,0.2,3.2c-0.5-0.6-2.2-2.9-3-2.7
			c-1,0.3-0.7,2.1-0.3,2.6c-0.8-1.5-4-2.1-2.9-0.2c0.2-0.9-0.6-1.6-1.7-1.5c-1.5,0.2-1.7,2.2-1.7,3.3"/>
		<path class="st0" d="M490.6,526.6c1.9-1.3,1.6,1.2,1.1,2.2c1.1-2.1,3.9,0.1,2,1.4c0.1-2.1,3.3-2.1,3.5,0c-0.6-2.5,3.5-3,3.7-0.5
			c-0.5-3.5,5-4.5,6-1.1c-0.4-3.7,5.4-4.9,6.7-1.3c-1.3-3.6,5.4-4.2,4.9-0.4c-2-5.3,6.3-3,3.3-0.7c-0.2-1.1,0.5-3.4,2-3.5
			c1.6-0.2,1.4,3,1.1,4.2c0.7-0.8,1.4-1.6,2.1-2.4c1.1,0.8,1.6,2.1,1.2,3.3c0.4-0.3,2.4-1.7,3-1.4c0.7,0.4,0.1,2.3-0.2,2.8
			c0.8-0.6,1.7-1.1,2.6-1.3c0.2,1.1,0.1,2.2-0.3,3.2c0.4-0.3,2.7-1.2,3.2-0.5c0.5,0.7-1.2,2.5-1.6,2.8c0.7-0.4,3.3-1.8,3.9-1.3
			c0.8,0.6-0.3,2.1-0.9,2.5c1.4-1.1,4.5-0.4,2.7,1c0.2-0.9,1.3-1.2,2.2-0.7c1.3,0.8,0.6,2.6,0.1,3.6"/>
		<path class="st0" d="M448.1,513.4c0.3-0.4,2.3-2.3,3.1-2c1,0.4,0.5,2.4,0.1,3c1.7-1.2,3.7,0.7,2.4,2.3c1,0.2,1.8,0.8,2.2,1.7
			c1-1.1,3.1-0.4,3,1.1c0.3-1.8,3.4-2.2,4.2-0.6c0.6-3.6,6.5-3.1,6.3,0.6c1.2-2.7,6.3-2.7,6,0.7c3.4-2.6,8.2,1.3,5.9,4.7
			c2.5-0.3,3.5,2.8,1.3,3.8c0.9,0.1,1.8,0.2,2.7,0.3c-0.3,0.9-0.5,1.8-0.8,2.7c0.9-1.3,2.5-2.9,3.2-0.6c0.1-1.5,2-2.2,3.4-1.8"/>
		<path class="st0" d="M587.7,544.5c1.6,0.2,1.7-3.2,3.3-3.1c7.9-1,15.7-2,23.6-3c0.4-1,0.9-2,1.9-2.3c1-0.3,2.3,1,1.5,1.7
			c0.4-0.9,1.3-1.6,2.4-1.9c1,0.9,1.5,2.2,1.3,3.5c1.4-0.6,2.8-1.2,4.1-1.8c0.2,1.9-0.2,3.9-1.2,5.6c1.2-0.7,2.3-1.3,3.5-2
			c1.1,1.4,2.3,2.7,3.4,4.1c0.4-0.5,1.2-0.8,1.9-0.7c0.1,1,0,2-0.4,2.9l2.6-2c0.1,1,0.2,2,0.3,3c0.5-1.2,2-1.9,3.4-1.6
			c-1.4-3.3,3.7-6.9,6.8-4.8c-1.1-0.1-2-1.3-1.7-2.3c0.8-1.1,2.7-1.5,3.9-0.8c-0.1-1.1,0.1-2.1,0.7-3.1c2.1-0.4,4.3,1.2,4.4,3.1
			c-0.7-2,2.2-4.1,4.2-3c-0.3-1.4,1.1-3,2.7-3c1.6,0,3,1.6,2.7,3c0.1-1.8,1.1-3.6,2.5-4.9c1.4,0.9,2.4,2.5,2.5,4.1
			c0.8-2.1,4.9-1.8,5.3,0.4c0.6-1.9,2.3-3.5,4.4-4.2c0.6,1.8,0.4,3.8-0.6,5.4c1.4-1.1,3.3-1.6,5.1-1.5c0.7,1.5,0.7,3.3,0,4.7
			c0.8-1.3,2-2.5,3.5-3.2c1,1.1,1.1,2.8,0.2,4c0.9-0.6,1.8-1.3,2.6-1.9c0.9,1,1.2,2.5,0.5,3.7c0.5-0.9,1.4-1.7,2.5-2
			c0.7,0.9,0.6,2.4-0.4,3.2l3.2-0.4c-0.5,1.1-0.9,2.3-1.4,3.4c1.1-1.2,2.7-2,4.4-2.1c0.3,1.3,0.1,2.6-0.6,3.8"/>
		<path class="st0" d="M656.2,568.6c-1.1-1.3-2.4-3-1.8-4.6c0.6-1.6,4-1.6,3.7,0.1c3-2.7,7-4.3,11.1-4.5c-0.3-0.6-0.3-1.3-0.1-1.9
			c0.9-0.2,1.8,0,2.6,0.3c-0.1-1.6,2.7-2.5,3.7-1.1c-1.4-0.3-0.8-2.6,0.7-2.7c1.4-0.2,2.7,0.9,3.7,1.9c-0.8-1.3,0.3-3.2,1.9-3.3
			c1.6-0.1,3.1,1.6,2.5,3c0.6-1.2,1.7-2.2,2.9-2.8c0.9,0.8,1.7,1.8,2.1,2.8c0.3-1.1,1.1-2.2,2.2-2.8c0.9,0.8,1.7,1.5,2.6,2.3
			c-0.3-1.3,1.1-2.6,2.5-2.5c1.4,0.2,2.4,1.8,1.8,3c0.5-1.2,1.3-2.5,2.6-2.7"/>
	</g>
	<g>
		<path class="st0" d="M931.5,491.7c1.5-0.1,2.8,0.6,4.2,0.5c2-0.1,3.9-1.4,6-1.6c0.4,1,0.8,2,1.3,2.9c1.2-1.8,4.2-0.5,5.9,0.8
			c2.7,2.2,5.5,4.4,8.2,6.6c-0.5,0.2-1.1-0.4-1-1c0.1-0.5,0.5-1,1-1.3c1.4-1.2,3.3-2.5,5-1.7c-0.9-0.1-1.6-1.1-1.3-1.9
			c1.4,0.2,2.7-0.9,4-1.4c1.3-0.6,3.5,0.1,3.1,1.3c-0.1-1.2,2-1,3-0.3c2,1.4,3.8,3,5.3,4.9c0.6,0.2,0.5,1.2-0.1,1.4
			c1.3,0.8,1.7,2.5,0.8,3.7c1.8,0,3.6-0.1,5.4-0.3c-0.2-0.6-0.5-1.1-0.7-1.7c1.3-0.1,2.7,0.1,3.9,0.5c-0.6-0.4,0.3-1.3,1.1-1.5
			c2.1-0.5,4.3-0.5,6.4-0.1c0.8-1.1,1.8-2.1,2.9-2.8c0.7-0.5,1.6-1,2.5-0.9c0.9,0.1,1.7,1,1.3,1.8c-0.7-1.3,0.9-3,2.4-2.6
			c0-0.9,1.2-1.5,2-1.2c-0.3-0.6-0.5-1.1-0.8-1.7c1.2-0.7,2.5-1.4,3.8-1.3c1.4,0,2.8,1.2,2.5,2.4c0.7-0.2,1.3-0.3,2-0.5
			c0,0.6,0,1.3,0,1.9c0.9,0,1.8,0,2.7,0c0,0.8-0.1,1.6-0.1,2.4c0.6,0.2,1.2,0.5,1.8,0.7c-1.1,0.8-1,2.6,0,3.4c-1,0.7-2,1.5-3,2.2
			c0.5,0.3,0.9,0.6,1.4,0.9c-0.6,0.4-1.1,0.9-1.7,1.3c1.1,0.2,2.1,0.3,3.2,0.5c0.4,0.5,0.4,1.2,0.1,1.8c2-0.3,4.2,0.2,5.8,1.4
			c-2.4,1.3-2.9,4.7-1,6.6l-2.4,1.4c-1.3,0.7-1,2.6-3.7,2.4c-1.5-0.1-3.2-1.7-3.9-2.8c0.1,0.7-0.1,1.4-0.8,1.8
			c-0.7,0.4-1.6,0.4-2.2-0.1c0.3,0.4,0.7,0.8,0.8,1.4c0.1,0.5-0.4,1.1-0.9,1.1c-0.6,0-0.9-0.6-1.1-1.1l-0.7,2.1
			c-0.8-0.2-1.5-0.7-1.8-1.4c0.5,0.8-0.5,1.7-1.5,1.7c-1,0-1.8-0.7-2.5-1.3"/>
		<path class="st0" d="M812.5,565.2c0.4-0.1-0.2-0.6-0.6-0.5c-0.9,0.3-1.6,1.1-1.8,2c0.7,0.9,2.4,0.7,2.9-0.3c0.5-1-0.6-2.3-1.7-2.1
			c0.4-0.7,0.8-1.4,1.5-1.8c0.7-0.4,1.7-0.5,2.3,0.1c0.6,0.6,0.1,1.7-0.7,1.7c0.7-0.2,1.5-0.4,2.3-0.2c2.6,0.8-2.1,4.2-3.1,5.1
			c-0.8,0.8-2.8,0.6-2.6-0.4c-0.4,1.1-1.3,2.1-2.5,2.6c-0.7-0.7-0.9-1.9-0.3-2.8c-0.7,0.5-1.8,0.5-2.5,0c0.7-1,1.7-1.8,2.9-2.2
			c-0.6-0.3-1.1-0.8-1.4-1.4c0.6-0.2,1.2-0.5,1.8-0.7c-0.2-0.4-0.4-0.9-0.6-1.3c0.9-0.3,2,0,2.7,0.6"/>
		<path class="st0" d="M869.7,522.7c0.1-1.2-1.7-2.2-1.2-3.3c0.3-0.8,1.7-0.9,2.4-0.3c0.7,0.6,1,1.5,1.2,2.3
			c-0.1-0.6-0.1-1.2,0.1-1.8c0.2-0.6,0.8-1.1,1.5-1c0.6,0.1,1.1,0.6,1.2,1.2c0.1,0.6-0.1,1.2-0.2,1.8c0.2-1,1.1-1.9,2.2-2.1
			c0.2,0,0.4-0.1,0.6,0c0.4,0.2,0.5,0.7,0.4,1c-0.2,1.1-1.1,2.1-2.2,2.5c0.7-0.4,1.5-0.7,2.3-0.8c0.3,0,0.7,0,1,0.1
			c1,0.4,0.7,1.9-0.2,2.4c-1,0.5-2.2,0.2-3.2,0c0.6,0.2,1.2,0.5,1.6,0.9c0.4,0.4,0.7,1.1,0.4,1.6c-0.4,0.7-1.4,0.9-2.2,0.6
			c-0.8-0.3-1.3-1-1.8-1.6c0.3,0.6,0.5,1.3,0.4,2c-0.2,0.7-0.8,1.3-1.5,1.2c-0.8,0-1.3-0.7-1.5-1.4c-0.1-0.7,0.1-1.4,0.3-2
			c-0.7,0.6-1,1.4-1.7,2c-0.7,0.6-2.1,0.5-2.3-0.3c-0.1-0.4,0.1-0.8,0.4-1.1c0.4-0.5,0.8-0.9,1.4-1.2c-0.7,0.4-1.7,0.5-2.5,0.2
			c-0.2-0.1-0.4-0.2-0.6-0.4c-0.3-0.4,0.1-1.1,0.6-1.3c0.5-0.2,1.1-0.1,1.7-0.1c-0.9-0.2-1.7-0.5-2.6-0.7c-0.2-0.1-0.4-0.1-0.5-0.3
			c0-0.1,0-0.2,0.1-0.3c0.4-0.6,1.3-0.7,2-0.6c0.7,0.1,1.4,0.5,2,0.9"/>
		<path class="st0" d="M736.7,554.6c0.1-1.2-1.7-2.2-1.2-3.3c0.3-0.8,1.7-0.9,2.4-0.3c0.7,0.6,1,1.5,1.2,2.3
			c-0.1-0.6-0.1-1.3,0.1-1.8c0.2-0.6,0.8-1.1,1.5-1c0.6,0.1,1.1,0.6,1.2,1.2c0.1,0.6-0.1,1.2-0.2,1.8c0.2-1,1.1-1.9,2.2-2.1
			c0.2,0,0.4-0.1,0.6,0c0.4,0.2,0.5,0.6,0.4,1c-0.2,1.1-1.1,2.1-2.2,2.5c0.7-0.4,1.5-0.7,2.3-0.8c0.3,0,0.7-0.1,1,0.1
			c1,0.4,0.7,1.9-0.2,2.4c-1,0.5-2.2,0.2-3.2,0c0.6,0.2,1.2,0.5,1.6,0.9c0.4,0.4,0.7,1.1,0.4,1.6c-0.3,0.7-1.4,0.9-2.2,0.6
			c-0.8-0.3-1.3-1-1.8-1.6c0.3,0.6,0.5,1.3,0.4,2c-0.2,0.7-0.8,1.3-1.5,1.2c-0.8,0-1.3-0.7-1.5-1.4c-0.1-0.7,0.1-1.4,0.3-2
			c-0.7,0.6-1,1.4-1.7,2c-0.7,0.6-2.1,0.5-2.3-0.3c-0.1-0.4,0.1-0.8,0.4-1.1c0.4-0.5,0.8-0.9,1.4-1.2c-0.7,0.4-1.7,0.5-2.5,0.2
			c-0.2-0.1-0.4-0.2-0.6-0.4c-0.3-0.4,0.1-1.1,0.6-1.3c0.5-0.2,1.1-0.1,1.7-0.1c-0.9-0.2-1.7-0.5-2.6-0.7c-0.2-0.1-0.4-0.1-0.5-0.3
			c0-0.1,0-0.2,0.1-0.3c0.4-0.6,1.3-0.7,2-0.6c0.7,0.1,1.4,0.5,2,0.9"/>
		<path class="st0" d="M931.5,491.6c-0.1-1.6-1.6-3.1-3.4-3.2c-1.8-0.1-3.5,1.2-3.8,2.8c-2.3-0.1-4.6,0.2-6.8,0.8
			c-0.5,0.9-1,1.7-1.5,2.6c-0.8-0.6-1.8-1-2.8-1.1c-0.5,1-1,1.9-1.5,2.9c-0.7-0.6-1.5-1-2.4-1.2c-0.7,0.9-0.8,2.1-0.3,3.1
			c-0.7-1.4-3.2-0.9-3.9,0.5c-0.6,1.4,0,3,0.6,4.4c-0.9-2.1-4.4-2.6-6.1-1c-1.7,1.6-0.9,4.7,1.3,5.6c-1.8-0.3-3.6-0.7-5.4-1
			c-1,1.3-1.6,2.8-1.9,4.4c-1.5-3.1-7-3.6-9.1-0.8c0-1.6-0.8-3.2-2.3-4.1c-0.9,1-1.7,2-2.6,3c-0.3-1.6-1-3-1.9-4.4
			c-1.2,0.3-2.2,1.1-2.8,2.1c0.3-1.4-0.8-3-2.3-3.4c-1.6-0.3-3.3,0.6-3.7,2.1c-0.3-1.2-0.5-2.4-0.8-3.6c-1.8,1.3-3.4,2.9-4.7,4.6
			c-2.4-0.5-2.4-4.8-4.7-4.5c-0.8,0.1-1.4,0.9-1.8,1.5c-1.1,1.7-2.2,3.3-3.3,5c-1.1-1.9-1.8-4-2.2-6.1c-1.1,1-2.2,1.9-3.2,2.9
			c0.3-1.5,0-3-0.6-4.4c-2.1,1.5-3.7,3.5-4.6,5.8c-0.4-0.9-0.7-1.7-1.1-2.6c-2.2,1.4-3.8,3.5-4.4,5.9l-1.2-3.1
			c-1.3,1.4-2.1,3.1-2.3,4.9c-0.9-0.8-2.3-1.2-3.6-0.9c0.6,3.1,1.3,6.1,1.9,9.2c-2.8-0.4-5.7,1-7.1,3.2c-1.4,2.2-1.1,5.2,0.7,7.2
			c-3.5-0.3-7.1,1-9.5,3.3c-1.9-2.2-3.6-4.6-5-7.1c-1.9,1.5-3.6,3.4-4.8,5.4l-2.3-1c-0.6,0.9-1.1,1.7-1.7,2.6
			c-1.1-1-2.7-1.5-4.3-1.3"/>
		<path class="st0" d="M785.6,538.6c-0.8-1.7-0.6-4.1,1.2-5.1c1.8-1,4.7,0.5,4.1,2.3c0.3-1.1,0.7-2.3,1-3.4c0.8,0.4,1.8,0.5,2.7,0.4
			c0.6-1.2,1.1-2.4,1.7-3.5c2,2.1,3.4,4.8,3.7,7.6c0.8-1.2,2-2.2,3.5-2.7c1.2,1.5,1.9,3.3,2,5.1l2.6-2.2c1.1,1.6,1.8,3.5,1.8,5.4
			c1.2-2.8,6.9-1.8,6.9,1.2c1.1-1.3,2.9-2.1,4.7-2.1c0,1.5,0,2.9,0,4.4c0.8-0.7,1.9-1.1,3.1-1.1c0.6,1.3,1.2,2.7,1.8,4
			c1.6-1.2,3.5-2.5,5.6-2.3c2.1,0.2,3.7,3,2,4.1c1.9-0.7,3.7-1.5,5.6-2.2c0.1,1.6-0.3,3.2-1,4.6c1.6-1.1,3.5-1.8,5.5-2
			c-0.8,2.6-2.4,5-4.4,7c1.6-0.4,3.3-0.8,4.9-1.2c0,1.9-0.9,3.9-2.4,5.3c1.6-0.4,3.3-0.9,4.9-1.3c0.2,1.8-0.2,3.7-1.3,5.3
			c2.3-0.9,4.6-1.9,6.9-2.8c1,1.3,1.3,3.1,0.8,4.6c0.4-1.5,2-2.6,3.7-2.6c1.7,0.1,3.2,1.4,3.3,3c0.5-1.8,1.2-3.9,3.1-4.7
			c1.9-0.8,4.7,1.1,3.5,2.7c0.9-1.7,1.7-3.4,2.6-5.1c1.5,0.3,2.8,1.4,3.2,2.8c-0.8-2.2,2.5-4.5,4.6-3.1c-0.4-0.9-0.8-1.8-1.3-2.7
			c2.1-0.2,4.3-0.2,6.4,0.1c-1.8-0.6-2.6-2.8-1.5-4.2c1.1-1.4,3.7-1.5,4.8-0.1c-0.6-1.3-1-2.7-1.2-4.1c1.4-0.3,3,0.1,4.1,1
			c-0.5-1.5-1-2.9-1.5-4.4c2.1,0.4,4.1,1,6.1,1.7c-2.1-0.7-2-4,0-4.9c2-1,4.7,0.2,5.5,2.1c0.3-1.8,1.3-3.8,3.2-4.3
			c1.9-0.5,4.2,1.8,2.9,3.1c0.4-1.4,2.1-2.4,3.6-2c1.5,0.3,2.6,1.9,2.2,3.3c-1-0.8,0.7-2.4,1.9-1.9c1.3,0.4,1.8,1.8,2.1,3
			c0.3-1.6,2.3-2.8,4.1-2.3c1.7,0.5,2.7,2.5,2,4c-1-1,0.8-2.6,2.2-2.1c1.4,0.5,1.9,1.9,2.3,3.2c-0.2-1.1-0.4-2.2-0.6-3.2
			c1.5-0.4,3.3,0.3,4.1,1.6"/>
		<path class="st0" d="M701.1,538.4c-0.2-1.3,1.7-2.2,3-1.6c1.2,0.7,1.4,2.4,0.7,3.5c1-1.8,2-3.7,2.9-5.5c1,0.8,1.5,1.9,1.5,3.1
			c0.6-1.7,1.5-3.3,2.8-4.7c0.8,1,1.2,2.2,1.3,3.4c0.5-1.5,1.3-3,2.4-4.2c0.9,1.3,1.4,2.8,1.4,4.3c0.6-1.7,1.8-3.3,3.4-4.5
			c0.9,1.5,1.2,3.3,0.9,5c0.2-1.8,2.5-3.1,4.3-2.4c1.8,0.7,2,3.4,0.4,4.3c1.2-0.8,2.5-1.7,3.7-2.5c0.6,1,0.7,2.1,0.4,3.2
			c1.2-0.6,2.4-1.2,3.6-1.8c0.5,1.4,0.3,2.9-0.5,4.1c1-1,2-1.9,3-2.9c0,1.1,0,2.2,0,3.4c0.7-1.2,2.6-1.7,3.9-1
			c1.3,0.7,1.8,2.4,1.1,3.6c0.7-1.7,3.2-2.4,4.9-1.5c1.7,0.9,2.1,3.2,1.1,4.7c1.1-1.1,2.2-2.2,3.3-3.3c0.7,0.6,1.1,1.5,1,2.4
			c0.5-1.1,1.4-2.1,2.5-2.8c1.2,1,1.8,2.5,1.6,4c0.2-1.4,2-2.5,3.5-2.1c1.5,0.3,2.5,2,2,3.4c1.4-2,5.1-2,6.6-0.1
			c0.2-1.8,3-2.9,4.6-1.8c0-0.8,0.1-1.5,0.1-2.3c1.2-0.2,2.4,0.1,3.4,0.8l0.1-2.5c1,0.1,1.9,0.2,2.9,0.4c-0.7-1.2,1.9-2.3,2.4-1.1
			c-0.1-1-0.2-2.1-0.3-3.2c1.1-0.1,2.3,0.5,2.8,1.5c-0.3-0.9,0.8-1.6,1.7-1.9c3.1-0.9,7.1,0.4,7.7,3.3"/>
	</g>
	<g>
		<path class="st0" d="M1029.6,230.1c-1.7,5.5-6.8,11.4-11.8,15.5"/>
		<path class="st0" d="M1017.2,246.1c1.1,0.1,2.1,0.5,3.1,0.9c9.6,4.3,15.2,12.4,20.3,20.1"/>
		<path class="st0" d="M1041.3,268.6c9.1-8.6,13.8-19.9,12.6-31.1"/>
		<path class="st0" d="M1030.1,230c-0.1-0.2-0.5-0.5-0.2-0.5c0.3,0,0.4,0.3,0.7,0.3c8.3,1.3,16.2,3.9,23.2,7.6"/>
		<path class="st0" d="M1030.2,230.6c20,100.6-145.7,223.3-188.2,273.8"/>
		<path class="st0" d="M1053.5,237.4c1.2,15.1-3.9,30.3-12.2,44c-8.3,13.7-16.9,23.6-28.9,35.5"/>
		<path class="st0" d="M1017.3,246.5c4.8,11.6,4.6,24.1,4.2,36.3c-0.4,10.3-2.8,24.3-9.5,33.1"/>
		<path class="st0" d="M1041.3,268.6c-0.9,3.4-2.3,6.6-4.4,10.2c-7,12.1-12.6,23.9-22.6,34.5"/>
		<path class="st0" d="M1029.9,229.5c4,12.2,7.1,26.6,11.1,38.8"/>
		<path class="st0" d="M1017.3,245.9c12.6-2.3,22-4.9,36-8.3"/>
		<path class="st0" d="M948.7,187c6.3-5.2,12.9-12.7,15.1-19.8l30.3,9.6c-17.9,4.4-29.9,7.8-46.1,10.7"/>
		<path class="st0" d="M947.9,187.7c1.4,0.1,2.7,0.6,3.9,1.2c12.2,5.5,19.4,15.9,26,25.7"/>
		<path class="st0" d="M978.8,216.6c11.7-11.1,17.7-25.5,16.1-39.9"/>
		<path class="st0" d="M964.5,167.9c21.4,91.6-120.8,294.5-160.1,363.6"/>
		<path class="st0" d="M994.3,176.6c1.5,19.4-5,38.8-15.7,56.3c-10.6,17.5-18.6,29.4-34,44.5"/>
		<path class="st0" d="M948,188.3c6.1,14.9,5.9,30.9,5.3,46.5c-0.5,13.2-0.8,32.8-9.5,44.1"/>
		<path class="st0" d="M978.8,216.6c-1.1,4.3-3,8.4-5.6,13c-8.9,15.4-15.1,32.4-27.9,46"/>
		<path class="st0" d="M964.1,166.5c5.2,15.6,9.1,34.1,14.2,49.7"/>
	</g>
	<g>
		<path class="st0" d="M339.5,196.3c-3.5-1.1-3.6-6.3-0.6-8.3c3-2,7.5-1,10.1,1.4c-2.3-5.8,4.7-12.7,11.2-10.9
			c-2-7.1,2.9-15.3,10.5-17.5c7.6-2.2,16.8,1.9,19.6,8.8c4.6-7.5,15-11.6,24.2-9.5c9.1,2.1,16.3,10.1,16.6,18.7
			c5.6-1.7,11.5-3.4,17.2-2.2c5.7,1.2,10.7,6.7,8.9,11.8c3.9-2.5,9.3-2.8,13.5-0.6"/>
		<path class="st0" d="M297.7,308.3c-1.3,0.2-2.6,0.3-3.7-0.2c-1.1-0.5-1.8-1.9-1.2-2.9c0.5-0.8,1.5-1.1,2.5-1.3
			c3.6-0.8,7.3-0.9,10.9-0.5c-1.1-1.2,0.9-2.8,2.6-2.8c1.7,0,3.7,0.6,4.9-0.5c0.5-0.4,0.8-1,1.1-1.5c1.6-2.5,5.5-3.6,8.4-2.3
			c1.1,0.5,2,1.2,3.2,1.4c1.5,0.2,2.8-0.7,4.2-1c4.4-0.9,7.9,3.3,12.2,4.3c3.4,0.8,8.1,0.2,9.3,3.2c1,2.5-2,5-4.8,5.5
			c-2.9,0.5-6,0-8.7,0.8c-3.2,1-6.4,3.7-9.3,2.1c-0.8-0.5-1.4-1.2-2.4-1.5c-1.9-0.4-3.3,1.7-5.1,2.4c-2.8,1.1-6.1-1.4-9-0.4
			c-1.3,0.5-2.2,1.6-3.5,2c-3.4,1.1-6.6-3.1-10.2-2.8"/>
		<path class="st0" d="M919.6,105.7c0.5-4.7,4.2-8.9,9-10.4c4.8-1.5,10.6-0.3,14.1,3c0.5-5,4.6-9.6,9.8-11.1c5.2-1.6,11.4,0,15,3.7
			c8-5.6,20.3-5.2,27.8,1c1.7,1.4,3.2,3,5.2,4c3.1,1.6,6.8,1.4,10.3,1.9c5.1,0.8,9.9,3.4,13.2,7.1c0.7,0.8,1.4,1.8,1.5,2.9
			c0.1,2-2,3.4-4,4.3c-5.6,2.4-12.2,3.1-18.3,2c-2.4-0.5-4.7-1.2-7.1-0.9c-2.9,0.4-5.2,2.3-7.6,3.7c-6.3,3.5-14.4,4.1-21.2,1.5
			c-2.4-0.9-4.7-2.3-7.3-2.4c-4.3-0.2-7.9,3-12,4.1c-7.9,2.1-16.2-3.5-24.4-2.5c-2.9,0.4-5.7,1.6-8.6,1.4c-4.8-0.3-8.6-5.3-7.1-9.5
			c1.6-4.2,8.3-5.8,11.7-2.8"/>
	</g>
	<g>
		<path class="st0" d="M249.3,10.8c0,0,19-2.9,27.6,9.2c0,0-2.4-16.7,14.9-19"/>
		<path class="st0" d="M320.7,36.1c0,0,17.1-2.6,24.8,8.3c0,0-2.2-15,13.4-17.1"/>
		<path class="st0" d="M315.3,69.6c0,0,12.1-1.8,17.5,5.8c0,0-1.5-10.6,9.4-12"/>
	</g>
</g>
</svg>
